<svg id="Layer_1" data-name="Layer 1" xmlns="http://www.w3.org/2000/svg" viewBox="0 0 1024 576"><title>cloudstate-distributed-state-management-for-serverless</title><rect x="-29" y="-26" width="1082" height="628" fill="#15a9ce"/><g id="icon" opacity="0.2"><path d="M507.83,453.45l17.61,8.81A269.83,269.83,0,0,1,674.68,703.63h0L507.83,620.24Z" fill="#fff" opacity="0.5"/><path d="M341,703.63l166.86-83.39V453.45l-17.62,8.81A269.85,269.85,0,0,0,341,703.63Z" fill="#fff" opacity="0.8"/><path d="M516.17,122.55l-17.61-8.81A269.83,269.83,0,0,1,349.32-127.63h0L516.17-44.24Z" fill="#fff" opacity="0.5"/><path d="M683-127.63,516.17-44.24V122.55l17.62-8.81A269.85,269.85,0,0,0,683-127.63Z" fill="#fff" opacity="0.8"/><path d="M361.35,207.08l-16.43,10.84a270.1,270.1,0,0,1-283.75,8.51h0L216.85,123.68Z" fill="#fff" opacity="0.5"/><path d="M228-62.45,216.85,123.68l144.5,83.4,1.18-19.65A269.82,269.82,0,0,0,228-62.45Z" fill="#fff" opacity="0.8"/><path d="M61.17,226.43h0L216.85,123.68,228-62.45h0A372.93,372.93,0,0,0,61.17,226.43Z" fill="#fff"/><path d="M662.65,368.92l16.43-10.84a270.1,270.1,0,0,1,283.75-8.51h0L807.15,452.32Z" fill="#fff" opacity="0.5"/><path d="M796,638.45l11.18-186.13-144.5-83.4-1.18,19.65A269.82,269.82,0,0,0,796,638.45Z" fill="#fff" opacity="0.8"/><path d="M962.83,349.57h0L807.15,452.32,796,638.45h0A372.93,372.93,0,0,0,962.83,349.57Z" fill="#fff"/><path d="M357.18,361.7l1.18,19.65a269.83,269.83,0,0,1-134.5,249.88h0L212.68,445.09Z" fill="#fff" opacity="0.5"/><path d="M57,342.35,212.68,445.09l144.5-83.39-16.43-10.84A270.08,270.08,0,0,0,57,342.35Z" fill="#fff" opacity="0.8"/><path d="M223.86,631.23h0L212.68,445.09,57,342.35h0A372.91,372.91,0,0,0,223.86,631.23Z" fill="#fff"/><path d="M666.82,214.3l-1.18-19.65A269.83,269.83,0,0,1,800.14-55.23h0l11.18,186.14Z" fill="#fff" opacity="0.5"/><path d="M967,233.65,811.32,130.91,666.82,214.3l16.43,10.84A270.08,270.08,0,0,0,967,233.65Z" fill="#fff" opacity="0.8"/><path d="M800.14-55.23h0l11.18,186.14L967,233.65h0A372.91,372.91,0,0,0,800.14-55.23Z" fill="#fff"/></g><g id="cloudstate"><path d="M403.1,268.75l-7.87,8.18a18,18,0,0,0-13.61-5.84,16,16,0,0,0-11.8,4.78,17.78,17.78,0,0,0,0,24,16,16,0,0,0,11.8,4.79,18.1,18.1,0,0,0,13.61-5.85L403.1,307a28.06,28.06,0,0,1-21.47,9.25,28.7,28.7,0,0,1-20.73-8.07,28.61,28.61,0,0,1,0-40.51,28.84,28.84,0,0,1,20.73-8.19A28.08,28.08,0,0,1,403.1,268.75Z" fill="#fff"/><path d="M405.86,240.68h12.76v56.56c0,5.21,1.7,7.44,6.38,7.44a13.49,13.49,0,0,0,3.82-.43v11.38a22.62,22.62,0,0,1-6.06.64c-11.27,0-16.9-5.74-16.9-17.33Z" fill="#fff"/><path d="M428,288a27.05,27.05,0,0,1,8.5-20.2,30.36,30.36,0,0,1,41.47,0,28.23,28.23,0,0,1,0,40.4,30.34,30.34,0,0,1-41.46,0A27,27,0,0,1,428,288Zm41,12a16.49,16.49,0,0,0,4.78-12,16.08,16.08,0,0,0-4.78-11.9,16.82,16.82,0,0,0-23.71,0A16.45,16.45,0,0,0,440.63,288a16.89,16.89,0,0,0,4.68,12A17.09,17.09,0,0,0,469,300Z" fill="#fff"/><path d="M490,261.19h12.76v31.36c0,7.34,3.93,11.91,10.84,11.91s11.7-5.11,11.7-12.44V261.18H538V298.5c0,4.57,1.07,6.17,3.94,6.17a25.87,25.87,0,0,0,2.66-.22v10.42a18.23,18.23,0,0,1-6.27.85,13.45,13.45,0,0,1-7.87-2.12,10,10,0,0,1-3.83-5.64c-3.08,5.21-8.51,7.87-16.27,7.87-12.76,0-20.41-8.18-20.41-21.47Z" fill="#fff"/><path d="M588.2,268.94V240.66H601V298.6c0,4.57,1.06,6.27,3.93,6.27a25.61,25.61,0,0,0,2.66-.21V315a18.23,18.23,0,0,1-6.27.85,14.06,14.06,0,0,1-7.45-1.7,9.87,9.87,0,0,1-4.36-6.48c-3.72,5.63-9.88,8.4-18.39,8.4A25.48,25.48,0,0,1,552,308a28,28,0,0,1-7.65-20c0-8,2.55-14.56,7.65-19.88A25.48,25.48,0,0,1,571.09,260C579.7,260,586.18,263.84,588.2,268.94Zm-3.82,30.73a16.7,16.7,0,0,0,0-23.39,15.87,15.87,0,0,0-11.59-4.68,15.39,15.39,0,0,0-11.38,4.68,17.56,17.56,0,0,0,0,23.39,15.39,15.39,0,0,0,11.38,4.67A15.88,15.88,0,0,0,584.38,299.67Z" fill="#fff"/><path d="M618.4,298.39c2.45,3.82,7.66,6.69,14.14,6.69,6.7,0,9.57-2.55,9.57-5.85,0-1.8-1.27-3.29-3.08-4.25a27.26,27.26,0,0,0-5-2c-1.59-.53-4.78-1.49-6.59-2.23-8.61-3.08-13.19-7.44-13.19-15.1a14.06,14.06,0,0,1,5.42-11.69,21.45,21.45,0,0,1,13.51-4.36c7.55,0,13.29,2.65,17.33,7.86L643.39,275c-2.34-3-5.85-4.46-10.42-4.46-3.94,0-6.49,1.91-6.49,4.78,0,1.81,1,2.77,2.45,3.73a34.69,34.69,0,0,0,4.36,1.91c1.59.42,4.57,1.49,6.69,2.23,9.89,3.51,14.36,8.29,14.36,15.95,0,9.88-7.44,17-22,17-10.74,0-18.71-4.14-22.11-10.84Z" fill="#fff"/><path d="M660.4,272.76h-6.7V261.17h6.7V240.65h12.76v20.52H685v11.59h-11.8v23.92c0,5.85,2,8,6.7,8a19.82,19.82,0,0,0,4.46-.42V315.6a29.11,29.11,0,0,1-6.59.64c-11.59,0-17.33-6.06-17.33-18.18Z" fill="#fff"/><path d="M728.87,268.92v-7.76h12.75v37.43c0,4.57,1.06,6.27,3.93,6.27a25.64,25.64,0,0,0,2.66-.22V315a18.48,18.48,0,0,1-6.27.85,14,14,0,0,1-7.44-1.7,9.86,9.86,0,0,1-4.36-6.49c-3.72,5.64-9.89,8.4-18.4,8.4A25.43,25.43,0,0,1,692.62,308,27.93,27.93,0,0,1,685,288c0-8,2.55-14.57,7.65-19.88A25.49,25.49,0,0,1,711.75,260C720.36,260,726.85,263.82,728.87,268.92ZM725,299.65a16.67,16.67,0,0,0,0-23.39,15.89,15.89,0,0,0-11.59-4.68,15.39,15.39,0,0,0-11.37,4.68,17.53,17.53,0,0,0,0,23.39,15.36,15.36,0,0,0,11.37,4.68A15.88,15.88,0,0,0,725,299.65Z" fill="#fff"/><path d="M752.68,272.75H746V261.16h6.7V240.64h12.76v20.52h11.8v11.59h-11.8v23.92c0,5.85,2,8,6.7,8a19.85,19.85,0,0,0,4.47-.42v11.37a29.17,29.17,0,0,1-6.59.64c-11.59,0-17.33-6.06-17.33-18.18Z" fill="#fff"/><path d="M777.46,288c0-8.51,2.65-15.31,7.86-20.52s12-7.76,20.2-7.76c7.76,0,14.14,2.55,19,7.75A26.67,26.67,0,0,1,832,286.67c0,1.59-.11,3.08-.21,4.46H790.11c.43,8.5,6.7,14,16.16,14A19.7,19.7,0,0,0,820.73,299l7.66,7.44A29.72,29.72,0,0,1,805.85,316c-8.4,0-15.31-2.55-20.52-7.54s-7.87-11.7-7.87-20.1ZM819,282.2a10.39,10.39,0,0,0-4-8.18,13.73,13.73,0,0,0-9.47-3.51,16.49,16.49,0,0,0-10.31,3.4,11.67,11.67,0,0,0-4.78,8.3Z" fill="#fff"/></g><g id="icon-2" data-name="icon"><path d="M258.63,311.54l2.61,1.3a39.89,39.89,0,0,1,22.06,35.68h0l-24.67-12.33Z" fill="#fff" opacity="0.5"/><path d="M234,348.52l24.66-12.33V311.54l-2.6,1.3A39.89,39.89,0,0,0,234,348.52Z" fill="#fff" opacity="0.8"/><path d="M283.3,348.52h0l-24.67-12.33L234,348.52h0A55.17,55.17,0,0,0,283.3,348.52Z" fill="#fff"/><path d="M259.87,262.63l-2.61-1.3a39.89,39.89,0,0,1-22.06-35.68h0L259.87,238Z" fill="#fff" opacity="0.5"/><path d="M284.53,225.65,259.87,238v24.65l2.6-1.3a39.89,39.89,0,0,0,22.06-35.68Z" fill="#fff" opacity="0.8"/><path d="M235.2,225.65h0L259.87,238l24.66-12.33h0A55.24,55.24,0,0,0,235.2,225.65Z" fill="#fff"/><path d="M237,275.12l-2.43,1.61A39.9,39.9,0,0,1,192.62,278h0l23-15.18Z" fill="#fff" opacity="0.5"/><path d="M217.28,235.29l-1.65,27.51L237,275.12l.18-2.9a39.88,39.88,0,0,0-19.88-36.93Z" fill="#fff" opacity="0.8"/><path d="M192.62,278h0l23-15.18,1.65-27.51h0A55.1,55.1,0,0,0,192.62,278Z" fill="#fff"/><path d="M281.52,299.05l2.43-1.61a39.9,39.9,0,0,1,41.93-1.25h0l-23,15.18Z" fill="#fff" opacity="0.5"/><path d="M301.22,338.88l1.65-27.51-21.35-12.32-.18,2.9a39.88,39.88,0,0,0,19.88,36.93Z" fill="#fff" opacity="0.8"/><path d="M325.88,296.19h0l-23,15.18-1.65,27.51h0A55.1,55.1,0,0,0,325.88,296.19Z" fill="#fff"/><path d="M236.37,298l.17,2.9a39.87,39.87,0,0,1-19.88,36.93h0L215,310.3Z" fill="#fff" opacity="0.5"/><path d="M192,295.12l23,15.18L236.37,298l-2.43-1.6A39.9,39.9,0,0,0,192,295.12Z" fill="#fff" opacity="0.8"/><path d="M216.66,337.81h0L215,310.3l-23-15.18h0A55.1,55.1,0,0,0,216.66,337.81Z" fill="#fff"/><path d="M282.13,276.19l-.17-2.9a39.87,39.87,0,0,1,19.88-36.93h0l1.65,27.51Z" fill="#fff" opacity="0.5"/><path d="M326.5,279.05l-23-15.18-21.36,12.32,2.43,1.61a39.92,39.92,0,0,0,41.94,1.25Z" fill="#fff" opacity="0.8"/><path d="M301.84,236.36h0l1.65,27.51,23,15.18h0A55.11,55.11,0,0,0,301.84,236.36Z" fill="#fff"/></g><g opacity="0.8"><path d="M403,333.59h3.78a7,7,0,0,1,5.33,1.94,7.82,7.82,0,0,1,1.82,5.56,10.54,10.54,0,0,1-.46,3.21,6.41,6.41,0,0,1-1.36,2.4,6,6,0,0,1-2.22,1.5,8.27,8.27,0,0,1-3,.52H403Zm3.64,13.56a4.88,4.88,0,0,0,4-1.59,6.81,6.81,0,0,0,1.33-4.47,6.55,6.55,0,0,0-1.33-4.41,5,5,0,0,0-4-1.52h-1.73v12Z" fill="#fff"/><path d="M418,335.21a1.33,1.33,0,0,1-.93-.35,1.14,1.14,0,0,1-.38-.88,1.13,1.13,0,0,1,.38-.88,1.32,1.32,0,0,1,.93-.34,1.36,1.36,0,0,1,.94.34,1.13,1.13,0,0,1,.38.88,1.14,1.14,0,0,1-.38.88A1.37,1.37,0,0,1,418,335.21Zm-1,2.3h1.9v11.21H417Z" fill="#fff"/><path d="M422.39,346.18a7.56,7.56,0,0,0,1.51,1,4,4,0,0,0,1.78.37,2.37,2.37,0,0,0,1.66-.51,1.62,1.62,0,0,0,.56-1.24,1.27,1.27,0,0,0-.23-.76,2.29,2.29,0,0,0-.59-.57,4.84,4.84,0,0,0-.82-.43l-.92-.36q-.6-.21-1.2-.48a4.53,4.53,0,0,1-1.07-.64,3.29,3.29,0,0,1-.78-.89,2.37,2.37,0,0,1-.3-1.22,3,3,0,0,1,.27-1.26,2.9,2.9,0,0,1,.76-1,3.45,3.45,0,0,1,1.21-.67,5.49,5.49,0,0,1,3.56.12,6.37,6.37,0,0,1,1.54.9l-.9,1.2a6.2,6.2,0,0,0-1.2-.71,3.25,3.25,0,0,0-1.36-.28,2.13,2.13,0,0,0-1.56.49,1.51,1.51,0,0,0-.49,1.13,1.15,1.15,0,0,0,.2.67,1.84,1.84,0,0,0,.56.51,3.88,3.88,0,0,0,.79.39l.94.36,1.21.49a4.85,4.85,0,0,1,1.09.63,3.11,3.11,0,0,1,.8.93,2.68,2.68,0,0,1,.31,1.34,3.11,3.11,0,0,1-.27,1.29,2.86,2.86,0,0,1-.78,1.06,3.85,3.85,0,0,1-1.29.73,5.34,5.34,0,0,1-1.76.26,6.09,6.09,0,0,1-2.29-.43,7.3,7.3,0,0,1-1.89-1.11Z" fill="#fff"/><path d="M432.67,339.06H431v-1.43l1.75-.12.23-3.13h1.59v3.13h3v1.55h-3v6.22a2.87,2.87,0,0,0,.38,1.6,1.52,1.52,0,0,0,1.35.57,2.6,2.6,0,0,0,.65-.09,4.08,4.08,0,0,0,.62-.21l.37,1.43c-.31.11-.64.2-1,.29a4.94,4.94,0,0,1-1.07.12,3.71,3.71,0,0,1-1.51-.27,2.74,2.74,0,0,1-1-.76,3.12,3.12,0,0,1-.54-1.18,6.57,6.57,0,0,1-.16-1.52Z" fill="#fff"/><path d="M440.14,337.51h1.57l.16,2h.07a5.09,5.09,0,0,1,1.39-1.68,3,3,0,0,1,3-.39l-.37,1.66a2.8,2.8,0,0,0-.51-.14,2.94,2.94,0,0,0-.57-.05,2.47,2.47,0,0,0-1.49.58,4.65,4.65,0,0,0-1.35,2v7.2h-1.89Z" fill="#fff"/><path d="M449.11,335.21a1.33,1.33,0,0,1-.93-.35,1.12,1.12,0,0,1-.39-.88,1.1,1.1,0,0,1,.39-.88,1.44,1.44,0,0,1,1.86,0,1.1,1.1,0,0,1,.38.88,1.11,1.11,0,0,1-.38.88A1.33,1.33,0,0,1,449.11,335.21Zm-1,2.3H450v11.21h-1.89Z" fill="#fff"/><path d="M453.81,332.3h1.89v4.47l0,2a8.06,8.06,0,0,1,1.66-1.12,4,4,0,0,1,1.84-.44,4.37,4.37,0,0,1,1.92.4,3.85,3.85,0,0,1,1.39,1.15,5.18,5.18,0,0,1,.85,1.8,8.52,8.52,0,0,1,.29,2.34,7.82,7.82,0,0,1-.39,2.56,5.77,5.77,0,0,1-1.06,1.91,4.48,4.48,0,0,1-1.54,1.19,4.37,4.37,0,0,1-1.85.4,4.17,4.17,0,0,1-1.63-.35,5.53,5.53,0,0,1-1.57-1h-.07l-.17,1.11h-1.52Zm1.89,13.93a4.83,4.83,0,0,0,1.47.91,3.68,3.68,0,0,0,1.28.26,2.66,2.66,0,0,0,1.28-.31,3.1,3.1,0,0,0,1-.87,4.24,4.24,0,0,0,.67-1.4,6.68,6.68,0,0,0,.24-1.87,8,8,0,0,0-.16-1.68A3.73,3.73,0,0,0,461,340a2.47,2.47,0,0,0-.92-.84,2.86,2.86,0,0,0-1.35-.3,4.62,4.62,0,0,0-3,1.52Z" fill="#fff"/><path d="M466.45,337.51h1.91v6.85a4,4,0,0,0,.5,2.29,1.82,1.82,0,0,0,1.6.71,2.68,2.68,0,0,0,1.54-.45,7.22,7.22,0,0,0,1.48-1.44v-8h1.89v11.21H473.8l-.16-1.75h-.07a7.46,7.46,0,0,1-1.65,1.47,3.66,3.66,0,0,1-2,.55,3,3,0,0,1-2.61-1.1,5.45,5.45,0,0,1-.82-3.28Z" fill="#fff"/><path d="M479.47,339.06h-1.66v-1.43l1.76-.12.23-3.13h1.59v3.13h3v1.55h-3v6.22a2.87,2.87,0,0,0,.38,1.6,1.49,1.49,0,0,0,1.35.57,2.53,2.53,0,0,0,.64-.09,4.65,4.65,0,0,0,.63-.21l.37,1.43c-.31.11-.65.2-1,.29a4.94,4.94,0,0,1-1.07.12,3.74,3.74,0,0,1-1.51-.27,2.62,2.62,0,0,1-1-.76,2.85,2.85,0,0,1-.54-1.18,6.55,6.55,0,0,1-.17-1.52Z" fill="#fff"/><path d="M485.88,343.14a6.89,6.89,0,0,1,.43-2.48,5.93,5.93,0,0,1,1.13-1.86,5,5,0,0,1,1.6-1.16,4.53,4.53,0,0,1,1.87-.4,4.77,4.77,0,0,1,1.9.36,3.65,3.65,0,0,1,1.41,1.07,4.75,4.75,0,0,1,.86,1.66,7.23,7.23,0,0,1,.3,2.16,7.47,7.47,0,0,1-.06,1h-7.57a4.45,4.45,0,0,0,1.12,2.88,3.43,3.43,0,0,0,2.62,1.06,4.38,4.38,0,0,0,1.48-.24,6.57,6.57,0,0,0,1.31-.63l.67,1.24a9.63,9.63,0,0,1-1.64.81,5.69,5.69,0,0,1-2.05.34,5.43,5.43,0,0,1-2.11-.4,5,5,0,0,1-1.71-1.15,5.47,5.47,0,0,1-1.14-1.83A6.84,6.84,0,0,1,485.88,343.14Zm7.84-.85a4.2,4.2,0,0,0-.72-2.65,2.5,2.5,0,0,0-2-.91,2.63,2.63,0,0,0-1.14.25,3.12,3.12,0,0,0-1,.69,3.58,3.58,0,0,0-.73,1.1,5.21,5.21,0,0,0-.38,1.52Z" fill="#fff"/><path d="M497.34,343.14a7.05,7.05,0,0,1,.41-2.46,5.66,5.66,0,0,1,1.07-1.85,4.84,4.84,0,0,1,1.54-1.18,4.23,4.23,0,0,1,1.85-.41,3.82,3.82,0,0,1,1.68.34,7.34,7.34,0,0,1,1.45.95l-.09-1.92V332.3h1.92v16.42H505.6l-.16-1.32h-.07a7,7,0,0,1-1.54,1.12A3.72,3.72,0,0,1,502,349a4.14,4.14,0,0,1-3.38-1.52A6.61,6.61,0,0,1,497.34,343.14Zm2,0a5.32,5.32,0,0,0,.81,3.15,2.63,2.63,0,0,0,2.28,1.13,2.94,2.94,0,0,0,1.48-.38,5.25,5.25,0,0,0,1.38-1.16V340a4.72,4.72,0,0,0-1.37-.91,3.72,3.72,0,0,0-1.35-.26,2.6,2.6,0,0,0-1.25.31,3.05,3.05,0,0,0-1,.87,4.52,4.52,0,0,0-.69,1.35A5.71,5.71,0,0,0,499.3,343.12Z" fill="#fff"/><path d="M515.84,345.42a6.08,6.08,0,0,0,1.9,1.37,5.16,5.16,0,0,0,2.27.52,3.61,3.61,0,0,0,2.33-.68,2.21,2.21,0,0,0,.83-1.79,2.25,2.25,0,0,0-.2-1,2.36,2.36,0,0,0-.53-.69,4.32,4.32,0,0,0-.79-.52l-1-.48-2.16-.95a8.57,8.57,0,0,1-1.09-.55,4.67,4.67,0,0,1-1-.78,3.78,3.78,0,0,1-.71-1.1,3.52,3.52,0,0,1-.28-1.46,3.57,3.57,0,0,1,.36-1.59,4,4,0,0,1,1-1.28,4.56,4.56,0,0,1,1.5-.84,5.74,5.74,0,0,1,1.9-.3,6.12,6.12,0,0,1,2.51.51,6.33,6.33,0,0,1,2,1.35l-1,1.25a5.4,5.4,0,0,0-1.54-1.05,4.6,4.6,0,0,0-1.9-.38,3.21,3.21,0,0,0-2,.59,1.93,1.93,0,0,0-.77,1.62,1.84,1.84,0,0,0,.22.94,2.26,2.26,0,0,0,.58.66,4.25,4.25,0,0,0,.81.51c.29.15.59.28.9.41l2.15.92a8.78,8.78,0,0,1,1.22.63,4.74,4.74,0,0,1,1,.83,3.73,3.73,0,0,1,.9,2.57,4,4,0,0,1-1.39,3.06,4.78,4.78,0,0,1-1.61.92A6.45,6.45,0,0,1,520,349a7.2,7.2,0,0,1-3-.6,7.12,7.12,0,0,1-2.36-1.63Z" fill="#fff"/><path d="M528.24,339.06h-1.66v-1.43l1.75-.12.23-3.13h1.59v3.13h3v1.55h-3v6.22a2.78,2.78,0,0,0,.39,1.6,1.49,1.49,0,0,0,1.34.57,2.6,2.6,0,0,0,.65-.09,4.08,4.08,0,0,0,.62-.21l.37,1.43c-.31.11-.64.2-1,.29a4.94,4.94,0,0,1-1.07.12,3.71,3.71,0,0,1-1.51-.27,2.74,2.74,0,0,1-1-.76,3.12,3.12,0,0,1-.54-1.18,6.57,6.57,0,0,1-.16-1.52Z" fill="#fff"/><path d="M534.74,345.81a3.1,3.1,0,0,1,1.65-2.82,13.51,13.51,0,0,1,5.25-1.37,5.1,5.1,0,0,0-.11-1,2.41,2.41,0,0,0-.37-.9,2.06,2.06,0,0,0-.7-.64,2.34,2.34,0,0,0-1.13-.24,4.6,4.6,0,0,0-1.83.37A9.75,9.75,0,0,0,536,340l-.76-1.31a11.64,11.64,0,0,1,1.91-1,6.28,6.28,0,0,1,2.49-.47,3.45,3.45,0,0,1,3,1.25,5.6,5.6,0,0,1,.92,3.36v6.87H542l-.16-1.34h0a9,9,0,0,1-1.74,1.14,4.24,4.24,0,0,1-2,.47,3.39,3.39,0,0,1-2.36-.83A2.94,2.94,0,0,1,534.74,345.81Zm1.87-.14a1.61,1.61,0,0,0,.57,1.39,2.31,2.31,0,0,0,1.39.41,3.16,3.16,0,0,0,1.53-.38,7,7,0,0,0,1.54-1.12v-3.11a19,19,0,0,0-2.38.44,6.27,6.27,0,0,0-1.55.6,2.19,2.19,0,0,0-.85.79A2,2,0,0,0,536.61,345.67Z" fill="#fff"/><path d="M547.42,339.06h-1.66v-1.43l1.76-.12.23-3.13h1.59v3.13h3v1.55h-3v6.22a2.78,2.78,0,0,0,.38,1.6,1.49,1.49,0,0,0,1.35.57,2.53,2.53,0,0,0,.64-.09,4.08,4.08,0,0,0,.62-.21l.37,1.43a10.05,10.05,0,0,1-1,.29,4.94,4.94,0,0,1-1.07.12,3.74,3.74,0,0,1-1.51-.27,2.62,2.62,0,0,1-1-.76,2.85,2.85,0,0,1-.54-1.18,6.55,6.55,0,0,1-.17-1.52Z" fill="#fff"/><path d="M553.83,343.14a6.89,6.89,0,0,1,.43-2.48,5.75,5.75,0,0,1,1.13-1.86,5,5,0,0,1,1.6-1.16,4.49,4.49,0,0,1,1.87-.4,4.77,4.77,0,0,1,1.9.36,3.73,3.73,0,0,1,1.41,1.07,4.75,4.75,0,0,1,.86,1.66,7.23,7.23,0,0,1,.3,2.16,6.06,6.06,0,0,1-.07,1H555.7a4.45,4.45,0,0,0,1.12,2.88,3.43,3.43,0,0,0,2.62,1.06,4.42,4.42,0,0,0,1.48-.24,6.57,6.57,0,0,0,1.31-.63l.67,1.24a9.63,9.63,0,0,1-1.64.81,5.72,5.72,0,0,1-2,.34,5.43,5.43,0,0,1-2.11-.4,5,5,0,0,1-1.71-1.15,5.47,5.47,0,0,1-1.14-1.83A6.84,6.84,0,0,1,553.83,343.14Zm7.84-.85a4.2,4.2,0,0,0-.72-2.65,2.5,2.5,0,0,0-2-.91,2.63,2.63,0,0,0-1.14.25,3,3,0,0,0-1,.69,3.58,3.58,0,0,0-.73,1.1,5.21,5.21,0,0,0-.38,1.52Z" fill="#fff"/><path d="M570.94,333.59h2.26l2.93,8.12,1.11,3.09h.09l1.06-3.09,2.9-8.12h2.26v15.13h-1.82v-8.33c0-.67,0-1.42.08-2.23s.11-1.56.18-2.24h-.1l-1.22,3.37-2.9,7.91h-1.09l-2.93-7.91-1.19-3.37h-.1c0,.68.1,1.42.16,2.24s.1,1.56.1,2.23v8.33h-1.78Z" fill="#fff"/><path d="M587,345.81a3.1,3.1,0,0,1,1.65-2.82,13.4,13.4,0,0,1,5.24-1.37,5.1,5.1,0,0,0-.1-1,2.59,2.59,0,0,0-.37-.9,2.1,2.1,0,0,0-.71-.64,2.31,2.31,0,0,0-1.13-.24,4.6,4.6,0,0,0-1.83.37,10.23,10.23,0,0,0-1.51.83l-.76-1.31a11.64,11.64,0,0,1,1.91-1,6.35,6.35,0,0,1,2.49-.47,3.45,3.45,0,0,1,3,1.25,5.6,5.6,0,0,1,.92,3.36v6.87h-1.57l-.16-1.34h0a8.77,8.77,0,0,1-1.75,1.14,4.21,4.21,0,0,1-2,.47,3.39,3.39,0,0,1-2.36-.83A3,3,0,0,1,587,345.81Zm1.86-.14a1.61,1.61,0,0,0,.57,1.39,2.33,2.33,0,0,0,1.39.41,3.22,3.22,0,0,0,1.54-.38,7.2,7.2,0,0,0,1.53-1.12v-3.11a18.51,18.51,0,0,0-2.37.44,6.2,6.2,0,0,0-1.56.6,2.22,2.22,0,0,0-.84.79A2,2,0,0,0,588.83,345.67Z" fill="#fff"/><path d="M599.32,337.51h1.57l.16,1.62h.07a9.16,9.16,0,0,1,1.7-1.35,3.88,3.88,0,0,1,2.06-.54,3,3,0,0,1,2.6,1.1,5.53,5.53,0,0,1,.81,3.28v7.1H606.4v-6.85a4,4,0,0,0-.5-2.29,1.87,1.87,0,0,0-1.62-.71,2.75,2.75,0,0,0-1.54.44,9.69,9.69,0,0,0-1.53,1.29v8.12h-1.89Z" fill="#fff"/><path d="M611.38,345.81A3.1,3.1,0,0,1,613,343a13.51,13.51,0,0,1,5.25-1.37,5.1,5.1,0,0,0-.11-1,2.26,2.26,0,0,0-.37-.9,2.06,2.06,0,0,0-.7-.64,2.34,2.34,0,0,0-1.13-.24,4.6,4.6,0,0,0-1.83.37,9.75,9.75,0,0,0-1.51.83l-.76-1.31a11.64,11.64,0,0,1,1.91-1,6.35,6.35,0,0,1,2.49-.47,3.45,3.45,0,0,1,3,1.25,5.6,5.6,0,0,1,.92,3.36v6.87H618.6l-.16-1.34h-.05a8.42,8.42,0,0,1-1.74,1.14,4.24,4.24,0,0,1-2,.47,3.39,3.39,0,0,1-2.36-.83A3,3,0,0,1,611.38,345.81Zm1.87-.14a1.61,1.61,0,0,0,.57,1.39,2.31,2.31,0,0,0,1.39.41,3.16,3.16,0,0,0,1.53-.38,7,7,0,0,0,1.54-1.12v-3.11a19,19,0,0,0-2.38.44,6.27,6.27,0,0,0-1.55.6,2.26,2.26,0,0,0-.85.79A2.07,2.07,0,0,0,613.25,345.67Z" fill="#fff"/><path d="M622.89,350.86a2.42,2.42,0,0,1,.44-1.36,4.47,4.47,0,0,1,1.2-1.17v-.1a2.25,2.25,0,0,1-.71-.7,2.26,2.26,0,0,1,.11-2.36,3.26,3.26,0,0,1,.83-.83v-.09a4.58,4.58,0,0,1-1-1.24,3.47,3.47,0,0,1-.45-1.79,4.07,4.07,0,0,1,.34-1.66,3.7,3.7,0,0,1,.91-1.25,4,4,0,0,1,1.35-.8,4.87,4.87,0,0,1,1.62-.27,4,4,0,0,1,.87.08,5.33,5.33,0,0,1,.72.19H633V339h-2.3a3.26,3.26,0,0,1,.65,1,3.13,3.13,0,0,1,.27,1.31,3.92,3.92,0,0,1-.33,1.63,3.48,3.48,0,0,1-.87,1.22,4,4,0,0,1-1.3.77,4.51,4.51,0,0,1-1.61.28,3.67,3.67,0,0,1-.85-.11,4.5,4.5,0,0,1-.83-.28,2.47,2.47,0,0,0-.51.56,1.42,1.42,0,0,0-.2.77,1.08,1.08,0,0,0,.41.88,2.58,2.58,0,0,0,1.57.34h2.17a5.53,5.53,0,0,1,2.94.64,2.25,2.25,0,0,1,1,2,3.05,3.05,0,0,1-.4,1.49,3.74,3.74,0,0,1-1.13,1.23,6,6,0,0,1-1.78.84,8.25,8.25,0,0,1-2.37.31,8.52,8.52,0,0,1-1.89-.19,4.6,4.6,0,0,1-1.46-.59,3,3,0,0,1-.95-1A2.48,2.48,0,0,1,622.89,350.86Zm1.66-.25a1.63,1.63,0,0,0,.86,1.43,4.63,4.63,0,0,0,2.39.53,5.05,5.05,0,0,0,1.46-.2,4.15,4.15,0,0,0,1.12-.5,2.38,2.38,0,0,0,.72-.73,1.61,1.61,0,0,0,.25-.85,1.11,1.11,0,0,0-.58-1.09,3.71,3.71,0,0,0-1.68-.3h-1.94l-.7,0a5,5,0,0,1-.75-.15,3,3,0,0,0-.87.92A1.89,1.89,0,0,0,624.55,350.61Zm3-6.71a2.12,2.12,0,0,0,.91-.19,2.22,2.22,0,0,0,.77-.53,2.37,2.37,0,0,0,.51-.84,3,3,0,0,0,.19-1.12,2.56,2.56,0,0,0-.69-1.92,2.43,2.43,0,0,0-3.37,0,2.56,2.56,0,0,0-.69,1.92,3.25,3.25,0,0,0,.18,1.12,2.54,2.54,0,0,0,.52.84,2.32,2.32,0,0,0,1.67.72Z" fill="#fff"/><path d="M634.21,343.14a6.69,6.69,0,0,1,.43-2.48,5.75,5.75,0,0,1,1.13-1.86,5,5,0,0,1,1.6-1.16,4.49,4.49,0,0,1,1.87-.4,4.8,4.8,0,0,1,1.9.36,3.62,3.62,0,0,1,1.4,1.07,4.77,4.77,0,0,1,.87,1.66,7.23,7.23,0,0,1,.3,2.16,6.06,6.06,0,0,1-.07,1h-7.56a4.4,4.4,0,0,0,1.12,2.88,3.41,3.41,0,0,0,2.61,1.06,4.44,4.44,0,0,0,1.49-.24,6.5,6.5,0,0,0,1.3-.63l.67,1.24a9.28,9.28,0,0,1-1.64.81,5.65,5.65,0,0,1-2,.34,5.5,5.5,0,0,1-2.11-.4,5,5,0,0,1-1.7-1.15,5.33,5.33,0,0,1-1.15-1.83A7.07,7.07,0,0,1,634.21,343.14Zm7.84-.85a4.14,4.14,0,0,0-.73-2.65,2.47,2.47,0,0,0-2-.91,2.63,2.63,0,0,0-1.14.25,3.12,3.12,0,0,0-1,.69,4,4,0,0,0-.73,1.1,5.55,5.55,0,0,0-.38,1.52Z" fill="#fff"/><path d="M646.48,337.51H648l.17,1.62h.07a7.5,7.5,0,0,1,1.6-1.35,3.46,3.46,0,0,1,1.88-.54,3.16,3.16,0,0,1,2,.56,3.25,3.25,0,0,1,1.08,1.58,9.18,9.18,0,0,1,1.76-1.56,3.42,3.42,0,0,1,1.93-.58,3,3,0,0,1,2.57,1.1,5.38,5.38,0,0,1,.84,3.28v7.1h-1.89v-6.85a4,4,0,0,0-.51-2.29,1.81,1.81,0,0,0-1.57-.71,4.18,4.18,0,0,0-2.81,1.73v8.12h-1.89v-6.85a4,4,0,0,0-.51-2.29,1.83,1.83,0,0,0-1.59-.71,4.16,4.16,0,0,0-2.81,1.73v8.12h-1.89Z" fill="#fff"/><path d="M664.76,343.14a6.69,6.69,0,0,1,.43-2.48,5.75,5.75,0,0,1,1.13-1.86,5,5,0,0,1,1.6-1.16,4.49,4.49,0,0,1,1.87-.4,4.8,4.8,0,0,1,1.9.36,3.73,3.73,0,0,1,1.41,1.07,4.93,4.93,0,0,1,.86,1.66,7.23,7.23,0,0,1,.3,2.16,6.06,6.06,0,0,1-.07,1h-7.56a4.45,4.45,0,0,0,1.12,2.88,3.42,3.42,0,0,0,2.61,1.06,4.44,4.44,0,0,0,1.49-.24,6.5,6.5,0,0,0,1.3-.63l.67,1.24a9.17,9.17,0,0,1-1.63.81,5.74,5.74,0,0,1-2.06.34,5.5,5.5,0,0,1-2.11-.4,5,5,0,0,1-1.7-1.15,5.17,5.17,0,0,1-1.14-1.83A6.84,6.84,0,0,1,664.76,343.14Zm7.84-.85a4.14,4.14,0,0,0-.73-2.65,2.47,2.47,0,0,0-2-.91,2.63,2.63,0,0,0-1.14.25,3.12,3.12,0,0,0-1,.69,3.75,3.75,0,0,0-.72,1.1,4.91,4.91,0,0,0-.38,1.52Z" fill="#fff"/><path d="M677,337.51h1.56l.17,1.62h.07a8.79,8.79,0,0,1,1.69-1.35,3.88,3.88,0,0,1,2.06-.54,3,3,0,0,1,2.6,1.1,5.52,5.52,0,0,1,.82,3.28v7.1h-1.9v-6.85a4,4,0,0,0-.5-2.29,1.87,1.87,0,0,0-1.62-.71,2.75,2.75,0,0,0-1.54.44,9.68,9.68,0,0,0-1.52,1.29v8.12H677Z" fill="#fff"/><path d="M690,339.06H688.3v-1.43l1.75-.12.23-3.13h1.6v3.13h3v1.55h-3v6.22a2.78,2.78,0,0,0,.38,1.6,1.49,1.49,0,0,0,1.34.57,2.6,2.6,0,0,0,.65-.09,4.08,4.08,0,0,0,.62-.21l.37,1.43c-.31.11-.64.2-1,.29a4.94,4.94,0,0,1-1.07.12,3.71,3.71,0,0,1-1.51-.27,2.62,2.62,0,0,1-1-.76,3,3,0,0,1-.55-1.18,7.16,7.16,0,0,1-.16-1.52Z" fill="#fff"/><path d="M707.14,333.85a3,3,0,0,0-1.27-.28c-1,0-1.57.72-1.57,2.17v1.77h2.38v1.55H704.3v9.66h-1.89v-9.66h-1.52v-1.43l1.52-.12v-1.77a4.22,4.22,0,0,1,.8-2.72,3,3,0,0,1,2.48-1,4.64,4.64,0,0,1,1,.11,6.23,6.23,0,0,1,.86.26Z" fill="#fff"/><path d="M707.76,343.14a6.72,6.72,0,0,1,.43-2.5,5.61,5.61,0,0,1,1.14-1.86,4.78,4.78,0,0,1,1.65-1.15,5.17,5.17,0,0,1,3.94,0,4.78,4.78,0,0,1,1.65,1.15,5.61,5.61,0,0,1,1.14,1.86,7.42,7.42,0,0,1,0,5,5.41,5.41,0,0,1-1.14,1.84,4.89,4.89,0,0,1-1.65,1.14,5.17,5.17,0,0,1-3.94,0,4.89,4.89,0,0,1-1.65-1.14,5.41,5.41,0,0,1-1.14-1.84A6.69,6.69,0,0,1,707.76,343.14Zm2,0a6.34,6.34,0,0,0,.23,1.75,4.47,4.47,0,0,0,.66,1.35,3,3,0,0,0,1,.88,2.92,2.92,0,0,0,2.62,0,3.09,3.09,0,0,0,1-.88,4.47,4.47,0,0,0,.66-1.35,6.34,6.34,0,0,0,.23-1.75,6.49,6.49,0,0,0-.23-1.77,4.59,4.59,0,0,0-.66-1.37,3.12,3.12,0,0,0-1-.89,2.92,2.92,0,0,0-2.62,0,3,3,0,0,0-1,.89,4.59,4.59,0,0,0-.66,1.37A6.49,6.49,0,0,0,709.72,343.14Z" fill="#fff"/><path d="M721.09,337.51h1.57l.16,2h.07a5.09,5.09,0,0,1,1.39-1.68,2.86,2.86,0,0,1,1.79-.62,2.92,2.92,0,0,1,1.2.23l-.37,1.66a3.32,3.32,0,0,0-.51-.14,3,3,0,0,0-.58-.05,2.47,2.47,0,0,0-1.48.58,4.48,4.48,0,0,0-1.35,2v7.2h-1.89Z" fill="#fff"/><path d="M734,345.42a6.08,6.08,0,0,0,1.9,1.37,5.2,5.2,0,0,0,2.27.52,3.59,3.59,0,0,0,2.33-.68,2.21,2.21,0,0,0,.83-1.79,2.25,2.25,0,0,0-.2-1,2.2,2.2,0,0,0-.53-.69,4.32,4.32,0,0,0-.79-.52l-1-.48-2.17-.95a8.57,8.57,0,0,1-1.09-.55,4.67,4.67,0,0,1-1-.78,3.78,3.78,0,0,1-.71-1.1,3.52,3.52,0,0,1-.28-1.46,3.57,3.57,0,0,1,.36-1.59,4,4,0,0,1,1-1.28,4.56,4.56,0,0,1,1.5-.84,5.78,5.78,0,0,1,1.9-.3,6.09,6.09,0,0,1,2.51.51,6.33,6.33,0,0,1,2,1.35l-1,1.25a5.27,5.27,0,0,0-1.54-1.05,4.6,4.6,0,0,0-1.9-.38,3.25,3.25,0,0,0-2,.59,1.93,1.93,0,0,0-.77,1.62,1.84,1.84,0,0,0,.22.94,2.16,2.16,0,0,0,.59.66,3.89,3.89,0,0,0,.8.51c.29.15.59.28.9.41l2.15.92a8.78,8.78,0,0,1,1.22.63,4.74,4.74,0,0,1,1,.83,3.63,3.63,0,0,1,.66,1.11,4.1,4.1,0,0,1,.24,1.46,4,4,0,0,1-.36,1.69,4.13,4.13,0,0,1-1,1.37,4.93,4.93,0,0,1-1.62.92,6.45,6.45,0,0,1-2.14.33,7.2,7.2,0,0,1-3-.6,7.12,7.12,0,0,1-2.36-1.63Z" fill="#fff"/><path d="M745.23,343.14a6.69,6.69,0,0,1,.43-2.48,5.75,5.75,0,0,1,1.13-1.86,4.9,4.9,0,0,1,1.6-1.16,4.48,4.48,0,0,1,1.86-.4,4.82,4.82,0,0,1,1.91.36,3.62,3.62,0,0,1,1.4,1.07,4.77,4.77,0,0,1,.87,1.66,7.23,7.23,0,0,1,.3,2.16,6.06,6.06,0,0,1-.07,1H747.1a4.45,4.45,0,0,0,1.11,2.88,3.43,3.43,0,0,0,2.62,1.06,4.44,4.44,0,0,0,1.49-.24,6.5,6.5,0,0,0,1.3-.63l.67,1.24a9.28,9.28,0,0,1-1.64.81,5.69,5.69,0,0,1-2,.34,5.47,5.47,0,0,1-2.11-.4,5,5,0,0,1-1.7-1.15,5.33,5.33,0,0,1-1.15-1.83A7.07,7.07,0,0,1,745.23,343.14Zm7.84-.85a4.14,4.14,0,0,0-.73-2.65,2.47,2.47,0,0,0-2-.91,2.63,2.63,0,0,0-1.14.25,3.12,3.12,0,0,0-1,.69,4,4,0,0,0-.73,1.1,5.21,5.21,0,0,0-.38,1.52Z" fill="#fff"/><path d="M757.49,337.51h1.57l.16,2h.07a5.11,5.11,0,0,1,1.4-1.68,3,3,0,0,1,3-.39l-.37,1.66a3,3,0,0,0-.5-.14,3.13,3.13,0,0,0-.58-.05,2.49,2.49,0,0,0-1.49.58,4.65,4.65,0,0,0-1.35,2v7.2h-1.89Z" fill="#fff"/><path d="M764.32,337.51h2l2.12,6.37c.17.55.34,1.1.52,1.66s.35,1.09.52,1.63h.09l.51-1.63c.17-.56.34-1.11.5-1.66l2.13-6.37h1.86l-4,11.21h-2.22Z" fill="#fff"/><path d="M775.78,343.14a6.69,6.69,0,0,1,.43-2.48,5.91,5.91,0,0,1,1.12-1.86,5,5,0,0,1,1.61-1.16,4.48,4.48,0,0,1,1.86-.4,4.82,4.82,0,0,1,1.91.36,3.62,3.62,0,0,1,1.4,1.07,4.77,4.77,0,0,1,.87,1.66,7.87,7.87,0,0,1,.23,3.2h-7.56a4.45,4.45,0,0,0,1.11,2.88,3.43,3.43,0,0,0,2.62,1.06,4.44,4.44,0,0,0,1.49-.24,6.5,6.5,0,0,0,1.3-.63l.67,1.24a9.28,9.28,0,0,1-1.64.81,5.69,5.69,0,0,1-2.05.34,5.47,5.47,0,0,1-2.11-.4,5.11,5.11,0,0,1-1.71-1.15,5.47,5.47,0,0,1-1.14-1.83A7.07,7.07,0,0,1,775.78,343.14Zm7.84-.85a4.14,4.14,0,0,0-.73-2.65,2.47,2.47,0,0,0-2-.91,2.63,2.63,0,0,0-1.14.25,3.12,3.12,0,0,0-1,.69,4,4,0,0,0-.73,1.1,5.21,5.21,0,0,0-.38,1.52Z" fill="#fff"/><path d="M788,337.51h1.57l.16,2h.07a5.11,5.11,0,0,1,1.4-1.68,3,3,0,0,1,3-.39l-.36,1.66a3.32,3.32,0,0,0-.51-.14,3.13,3.13,0,0,0-.58-.05,2.49,2.49,0,0,0-1.49.58,4.55,4.55,0,0,0-1.34,2v7.2H788Z" fill="#fff"/><path d="M796,332.3h1.9v14.3a1,1,0,0,0,.16.64.46.46,0,0,0,.37.19h.17a1.13,1.13,0,0,0,.24-.05l.25,1.43a1.55,1.55,0,0,1-.43.14,4,4,0,0,1-.65,0,1.75,1.75,0,0,1-1.54-.64,3.21,3.21,0,0,1-.47-1.89Z" fill="#fff"/><path d="M801.09,343.14a6.89,6.89,0,0,1,.43-2.48,5.75,5.75,0,0,1,1.13-1.86,5,5,0,0,1,1.6-1.16,4.49,4.49,0,0,1,1.87-.4,4.77,4.77,0,0,1,1.9.36,3.73,3.73,0,0,1,1.41,1.07,4.75,4.75,0,0,1,.86,1.66,7.23,7.23,0,0,1,.3,2.16,6.06,6.06,0,0,1-.07,1H803a4.45,4.45,0,0,0,1.12,2.88,3.43,3.43,0,0,0,2.62,1.06,4.42,4.42,0,0,0,1.48-.24,6.57,6.57,0,0,0,1.31-.63l.67,1.24a9.63,9.63,0,0,1-1.64.81,5.72,5.72,0,0,1-2,.34,5.43,5.43,0,0,1-2.11-.4,4.91,4.91,0,0,1-1.71-1.15,5.47,5.47,0,0,1-1.14-1.83A6.84,6.84,0,0,1,801.09,343.14Zm7.84-.85a4.2,4.2,0,0,0-.72-2.65,2.5,2.5,0,0,0-2-.91A2.63,2.63,0,0,0,805,339a3.16,3.16,0,0,0-1,.69,3.75,3.75,0,0,0-.72,1.1,5.21,5.21,0,0,0-.38,1.52Z" fill="#fff"/><path d="M813.06,346.18a7.86,7.86,0,0,0,1.51,1,4.06,4.06,0,0,0,1.79.37A2.37,2.37,0,0,0,818,347a1.61,1.61,0,0,0,.55-1.24,1.27,1.27,0,0,0-.23-.76,2.14,2.14,0,0,0-.59-.57,4.84,4.84,0,0,0-.82-.43l-.92-.36q-.6-.21-1.2-.48a4.74,4.74,0,0,1-1.07-.64,3.43,3.43,0,0,1-.77-.89,2.37,2.37,0,0,1-.3-1.22,3.12,3.12,0,0,1,.26-1.26,2.9,2.9,0,0,1,.76-1,3.59,3.59,0,0,1,1.22-.67,5,5,0,0,1,1.61-.24,5.13,5.13,0,0,1,2,.36,6.3,6.3,0,0,1,1.53.9l-.9,1.2a5.65,5.65,0,0,0-1.2-.71,3.21,3.21,0,0,0-1.36-.28,2.1,2.1,0,0,0-1.55.49,1.52,1.52,0,0,0-.5,1.13,1.09,1.09,0,0,0,.21.67,1.8,1.8,0,0,0,.55.51,4,4,0,0,0,.8.39l.93.36,1.21.49a4.92,4.92,0,0,1,1.1.63,3.23,3.23,0,0,1,.79.93,2.68,2.68,0,0,1,.31,1.34,3.27,3.27,0,0,1-.26,1.29,3,3,0,0,1-.79,1.06,3.66,3.66,0,0,1-1.29.73,5.3,5.3,0,0,1-1.76.26,6,6,0,0,1-2.28-.43,7,7,0,0,1-1.89-1.11Z" fill="#fff"/><path d="M822.72,346.18a7.86,7.86,0,0,0,1.51,1,4.06,4.06,0,0,0,1.79.37,2.37,2.37,0,0,0,1.66-.51,1.61,1.61,0,0,0,.55-1.24A1.2,1.2,0,0,0,828,345a2.14,2.14,0,0,0-.59-.57,4.73,4.73,0,0,0-.81-.43l-.93-.36q-.6-.21-1.2-.48a4.74,4.74,0,0,1-1.07-.64,3.43,3.43,0,0,1-.77-.89,2.37,2.37,0,0,1-.3-1.22,3.12,3.12,0,0,1,.26-1.26,2.93,2.93,0,0,1,.77-1,3.45,3.45,0,0,1,1.21-.67,5,5,0,0,1,1.61-.24,5.13,5.13,0,0,1,2,.36,6.3,6.3,0,0,1,1.53.9l-.9,1.2a5.65,5.65,0,0,0-1.2-.71,3.18,3.18,0,0,0-1.36-.28,2.12,2.12,0,0,0-1.55.49,1.52,1.52,0,0,0-.5,1.13,1.09,1.09,0,0,0,.21.67,1.8,1.8,0,0,0,.55.51,4,4,0,0,0,.8.39l.93.36,1.21.49a4.92,4.92,0,0,1,1.1.63,3.08,3.08,0,0,1,.79.93,2.68,2.68,0,0,1,.31,1.34,3.1,3.1,0,0,1-.26,1.29A3,3,0,0,1,829,348a3.66,3.66,0,0,1-1.29.73A5.3,5.3,0,0,1,826,349a6,6,0,0,1-2.28-.43,7,7,0,0,1-1.89-1.11Z" fill="#fff"/></g></svg>