<svg id="Layer_1" data-name="Layer 1" xmlns="http://www.w3.org/2000/svg" viewBox="0 0 1024 576"><title>cloudstate-state-handling-in-a-serverless-world</title><rect x="-29" y="-26" width="1082" height="628" fill="#1070b2"/><g id="text"><path d="M336.6,320.86a24.91,24.91,0,0,1-18.9,8.91c-13.6,0-23.8-10.71-23.8-24.31s10.2-24.3,23.8-24.3a24.74,24.74,0,0,1,18.4,8.3l-5.7,5.1a17.07,17.07,0,0,0-12.7-5.6c-9.3,0-15.4,7.4-15.4,16.5s6.1,16.5,15.4,16.5a17,17,0,0,0,13.51-6.6Z" fill="#fff"/><path d="M342.48,267.06h8.4v61.5h-8.4Z" fill="#fff"/><path d="M406,305.46c0,13.6-10.2,24.31-23.8,24.31s-23.8-10.71-23.8-24.31,10.2-24.3,23.8-24.3S406,291.86,406,305.46Zm-8.4,0c0-9.1-6.1-16.5-15.4-16.5s-15.4,7.4-15.4,16.5,6.1,16.5,15.4,16.5S397.6,314.56,397.6,305.46Z" fill="#fff"/><path d="M411.6,312.06v-29.7H420v28.3c0,7.9,4.9,11.3,11.1,11.3,7.8,0,11.5-7.6,11.5-7.6v-32H451v46.2h-7.8v-7.1a16.37,16.37,0,0,1-14.2,8.31C419.8,329.77,411.6,323.46,411.6,312.06Z" fill="#fff"/><path d="M493.9,288.06v-21h8.4v61.5h-7.7v-6.7s-4.5,7.91-15.6,7.91c-12.5,0-22.4-10.71-22.4-24.31s9.9-24.3,22.4-24.3C489.2,281.16,493.9,288.06,493.9,288.06Zm0,8.9s-4.4-8-13.6-8-15.3,7.4-15.3,16.5,5.9,16.5,15.3,16.5c9.2,0,13.6-8,13.6-8Z" fill="#fff"/><path d="M522.2,312.46s6.3,6.8,14.3,6.8c4.9,0,9-1.4,9-4.3,0-3.1-2.2-3.7-9.4-5.2-9.4-2-17.6-6-17.6-15,0-7.4,7.4-14.8,20.4-14.8a30.25,30.25,0,0,1,17.8,5.8l-6,8.8s-5.4-4.1-11.8-4.1c-4.5,0-8.6,1.6-8.6,4.5s3.2,3.6,11.2,5.3c9.4,2,16.1,5.1,16.1,14.9,0,8.1-8.6,14.61-20.7,14.61-13.9,0-21.4-8.61-21.4-8.61Z" fill="#fff"/><path d="M559,281.16h9.3v-14.1h12v14.1h14.3V292H580.3v19.1c0,5.8,3,7.5,6.2,7.5a9.5,9.5,0,0,0,5-1.7l4.4,9.8a21.54,21.54,0,0,1-11.4,3.11c-9.2,0-16.2-6.71-16.2-16.81V292H559Z" fill="#fff"/><path d="M642,297.66v30.9H630.9v-6s-4.9,7.21-15.6,7.21c-8.9,0-17.11-5.81-17.11-15.91,0-9.1,8.31-15.7,18.61-15.7,8.7,0,13.2,3.4,13.2,3.4v-2.7c0-6.2-6-8.2-10.2-8.2-6.9,0-14.2,3.5-14.2,3.5l-3.91-9.9A48.08,48.08,0,0,1,620.4,280C634,280,642,286.86,642,297.66Zm-12,16.6v-4.9a24,24,0,0,0-10.8-2.4c-3.7,0-8.8,1.6-8.8,6.7s4.9,6.1,8.6,6.1A14.06,14.06,0,0,0,630,314.26Z" fill="#fff"/><path d="M644.19,281.16h9.31v-14.1h12v14.1h14.3V292H665.5v19.1c0,5.8,3,7.5,6.2,7.5a9.5,9.5,0,0,0,5-1.7l4.4,9.8a21.54,21.54,0,0,1-11.4,3.11c-9.2,0-16.2-6.71-16.2-16.81V292h-9.31Z" fill="#fff"/><path d="M730.1,304.66c0,.9,0,2.7-.1,4.5H694.59c.91,4.2,5.8,9.6,13.3,9.6a19.12,19.12,0,0,0,13-4.8l6,9a30.34,30.34,0,0,1-19,6.81c-14.4,0-25.5-11-25.5-24.91s10.1-24.9,23.8-24.9C719.19,280,730.1,290.06,730.1,304.66Zm-12-4.2c-.2-4.1-4-9.6-11.91-9.6-7.69,0-11.19,5.4-11.6,9.6Z" fill="#fff"/></g><g id="icon"><path d="M484.43,221.87a12,12,0,0,1,3.05-8h0a8,8,0,0,1-3.05-6.28V193.87a12,12,0,0,1,3.05-8h0a8,8,0,0,1-3.05-6.28V163.3a8,8,0,0,1,2.21-5.51A31.44,31.44,0,0,0,468.58,152a31.08,31.08,0,0,0-28.72,18.59l-.5,1.12-1.23.06a27.83,27.83,0,0,0,1.28,55.64h45Z" fill="#fff"/><path d="M576.67,150.07c0-.11,0-.22,0-.34a41.49,41.49,0,0,0-81.12-12.28,26,26,0,0,0-14.69-4.53,26.71,26.71,0,0,0-25,17.5,35.25,35.25,0,0,1,34.38,5.05c8-3.64,21.21-6,36.21-6,16,0,30,2.71,37.72,6.75a8,8,0,0,1,4.28,7.1v16.31a8,8,0,0,1-3.06,6.28,12,12,0,0,1,3.06,8v13.74a8,8,0,0,1-.71,3.23,31.6,31.6,0,0,0,8.95-60.77Z" fill="#fff"/><path d="M487.48,213.89a12,12,0,0,0-3.05,8v13.74a8,8,0,0,0,4.28,7.09c7.73,4.05,21.73,6.75,37.72,6.75s30-2.7,37.72-6.75a8,8,0,0,0,4.28-7.09V221.87a12,12,0,0,0-3.06-8" fill="none" stroke="#fff" stroke-linejoin="round" stroke-width="2"/><path d="M487.48,185.89a12,12,0,0,0-3.05,8v13.74a8,8,0,0,0,4.28,7.09c7.73,4.05,21.73,6.75,37.72,6.75s30-2.7,37.72-6.75a8,8,0,0,0,4.28-7.09V193.87a12,12,0,0,0-3.06-8" fill="none" stroke="#fff" stroke-linejoin="round" stroke-width="2"/><path d="M568.43,163.3a8,8,0,0,0-4.28-7.1c-7.73-4-21.73-6.75-37.72-6.75s-30,2.71-37.72,6.75a8,8,0,0,0-4.28,7.1v16.31a8,8,0,0,0,4.28,7.09c7.73,4.05,21.73,6.75,37.72,6.75s30-2.7,37.72-6.75a8,8,0,0,0,4.28-7.09Z" fill="none" stroke="#fff" stroke-linejoin="round" stroke-width="2"/><path d="M556.43,161.45a114.5,114.5,0,0,1-60,0" fill="none" stroke="#fff" stroke-linecap="round" stroke-linejoin="round" stroke-width="2"/></g><g opacity="0.8"><path d="M292.3,366.68l1.5-1.74a7.71,7.71,0,0,0,5.43,2.46c2.58,0,4.11-1.29,4.11-3.21s-1.41-2.64-3.27-3.48l-2.82-1.23c-1.86-.78-4-2.19-4-5.07s2.61-5.22,6.18-5.22a8.17,8.17,0,0,1,5.82,2.43l-1.35,1.62a6.28,6.28,0,0,0-4.47-1.86c-2.19,0-3.66,1.11-3.66,2.88s1.71,2.61,3.27,3.27l2.79,1.2c2.28,1,4.05,2.34,4.05,5.25,0,3.12-2.55,5.61-6.69,5.61A9.54,9.54,0,0,1,292.3,366.68Z" fill="#fff"/><path d="M309.22,364.73v-8.07h-2.16V354.8l2.28-.15.3-4.08h2.07v4.08h3.93v2h-3.93v8.1c0,1.8.57,2.82,2.25,2.82a5.3,5.3,0,0,0,1.65-.39l.48,1.86a9,9,0,0,1-2.7.54C310.27,369.59,309.22,367.61,309.22,364.73Z" fill="#fff"/><path d="M317.41,365.45c0-3.18,2.73-4.77,8.94-5.46,0-1.86-.6-3.66-3-3.66a7.93,7.93,0,0,0-4.35,1.56l-1-1.71a10.82,10.82,0,0,1,5.73-1.89c3.57,0,5.07,2.37,5.07,6v8.94h-2l-.21-1.74h-.09a7.78,7.78,0,0,1-4.83,2.1A4,4,0,0,1,317.41,365.45Zm8.94.21v-4.05c-4.86.6-6.54,1.8-6.54,3.66,0,1.65,1.14,2.34,2.58,2.34S324.94,366.92,326.35,365.66Z" fill="#fff"/><path d="M333.43,364.73v-8.07h-2.16V354.8l2.28-.15.3-4.08h2.07v4.08h3.93v2h-3.93v8.1c0,1.8.57,2.82,2.25,2.82a5.3,5.3,0,0,0,1.65-.39l.48,1.86a9,9,0,0,1-2.7.54C334.48,369.59,333.43,367.61,333.43,364.73Z" fill="#fff"/><path d="M341.65,362c0-4.77,3.21-7.68,6.54-7.68,3.72,0,5.82,2.67,5.82,6.84a9.54,9.54,0,0,1-.09,1.41h-9.84c.18,3.09,2.07,5.07,4.86,5.07a6.59,6.59,0,0,0,3.63-1.14l.87,1.62a8.68,8.68,0,0,1-4.8,1.5C344.74,369.59,341.65,366.74,341.65,362Zm10.2-1.2c0-2.94-1.32-4.53-3.6-4.53-2,0-3.9,1.65-4.2,4.53Z" fill="#fff"/><path d="M363.61,347.87h2.46v5.82l-.09,3c1.38-1.32,2.85-2.4,4.86-2.4,3.06,0,4.44,2,4.44,5.7v9.24h-2.46v-8.91c0-2.73-.84-3.9-2.76-3.9-1.5,0-2.52.78-4,2.25v10.56h-2.46Z" fill="#fff"/><path d="M379,365.45c0-3.18,2.73-4.77,8.94-5.46,0-1.86-.6-3.66-3-3.66a7.93,7.93,0,0,0-4.35,1.56l-1-1.71a10.82,10.82,0,0,1,5.73-1.89c3.57,0,5.07,2.37,5.07,6v8.94h-2l-.21-1.74h-.09a7.78,7.78,0,0,1-4.83,2.1A4,4,0,0,1,379,365.45Zm8.94.21v-4.05c-4.86.6-6.54,1.8-6.54,3.66,0,1.65,1.14,2.34,2.58,2.34S386.56,366.92,388,365.66Z" fill="#fff"/><path d="M395.05,354.65h2l.21,2.1h.09a6.87,6.87,0,0,1,4.89-2.46c3.06,0,4.44,2,4.44,5.7v9.24h-2.46v-8.91c0-2.73-.84-3.9-2.76-3.9-1.5,0-2.52.78-4,2.25v10.56h-2.46Z" fill="#fff"/><path d="M410.41,362c0-4.74,3-7.68,6.33-7.68a6,6,0,0,1,4.08,1.68l-.12-2.49v-5.61h2.49v21.36h-2l-.21-1.71h-.09a6.58,6.58,0,0,1-4.41,2.07C412.78,369.59,410.41,366.83,410.41,362Zm10.29,3.54v-7.62a5.07,5.07,0,0,0-3.54-1.53c-2.34,0-4.2,2.25-4.2,5.58,0,3.48,1.47,5.58,4,5.58A4.93,4.93,0,0,0,420.7,365.51Z" fill="#fff"/><path d="M428.11,366.29V347.87h2.46v18.6c0,.78.33,1.08.69,1.08a2.07,2.07,0,0,0,.54-.06l.33,1.86a3.31,3.31,0,0,1-1.41.24C428.86,369.59,428.11,368.42,428.11,366.29Z" fill="#fff"/><path d="M435.31,350.06a1.71,1.71,0,0,1,3.42,0,1.71,1.71,0,0,1-3.42,0Zm.45,4.59h2.46v14.58h-2.46Z" fill="#fff"/><path d="M443.14,354.65h2l.21,2.1h.09a6.87,6.87,0,0,1,4.89-2.46c3.06,0,4.44,2,4.44,5.7v9.24h-2.46v-8.91c0-2.73-.84-3.9-2.76-3.9-1.5,0-2.52.78-4,2.25v10.56h-2.46Z" fill="#fff"/><path d="M458.44,372a4.21,4.21,0,0,1,2.13-3.3v-.12a2.69,2.69,0,0,1-1.29-2.37,3.42,3.42,0,0,1,1.59-2.7v-.12a5.15,5.15,0,0,1,3.6-9.12,5.82,5.82,0,0,1,2.07.36h5.07v1.89h-3a4.23,4.23,0,0,1,1.2,3,5,5,0,0,1-5.34,5.07,5.09,5.09,0,0,1-2.19-.51,2.21,2.21,0,0,0-.93,1.74c0,.93.6,1.59,2.58,1.59h2.82c3.39,0,5.1,1.05,5.1,3.48,0,2.7-2.85,5-7.38,5C460.9,376,458.44,374.54,458.44,372Zm11-.75c0-1.35-1.05-1.8-2.94-1.8H464a7.1,7.1,0,0,1-1.89-.24,3.07,3.07,0,0,0-1.5,2.46c0,1.56,1.59,2.55,4.23,2.55C467.62,374.24,469.45,372.8,469.45,371.27Zm-1.89-11.79a3.1,3.1,0,1,0-6.18,0,3.11,3.11,0,1,0,6.18,0Z" fill="#fff"/><path d="M480.22,350.06a1.71,1.71,0,0,1,3.42,0,1.71,1.71,0,0,1-3.42,0Zm.45,4.59h2.46v14.58h-2.46Z" fill="#fff"/><path d="M488.05,354.65h2l.21,2.1h.09a6.87,6.87,0,0,1,4.89-2.46c3.06,0,4.44,2,4.44,5.7v9.24h-2.46v-8.91c0-2.73-.84-3.9-2.76-3.9-1.5,0-2.52.78-4,2.25v10.56h-2.46Z" fill="#fff"/><path d="M509.56,365.45c0-3.18,2.73-4.77,8.94-5.46,0-1.86-.6-3.66-3-3.66a7.93,7.93,0,0,0-4.35,1.56l-1-1.71a10.82,10.82,0,0,1,5.73-1.89c3.57,0,5.07,2.37,5.07,6v8.94h-2l-.21-1.74h-.09a7.78,7.78,0,0,1-4.83,2.1A4,4,0,0,1,509.56,365.45Zm8.94.21v-4.05c-4.86.6-6.54,1.8-6.54,3.66,0,1.65,1.14,2.34,2.58,2.34S517.09,366.92,518.5,365.66Z" fill="#fff"/><path d="M530,367.58l1.23-1.65a6.56,6.56,0,0,0,4.29,1.74c1.92,0,2.88-1,2.88-2.28,0-1.5-1.74-2.16-3.33-2.76-2.07-.75-4.35-1.74-4.35-4.2s1.86-4.14,5-4.14a7.28,7.28,0,0,1,4.53,1.65l-1.17,1.56a5.41,5.41,0,0,0-3.33-1.29c-1.83,0-2.67,1-2.67,2.1,0,1.38,1.59,1.89,3.24,2.52,2.1.78,4.44,1.65,4.44,4.41,0,2.37-1.89,4.35-5.34,4.35A8.78,8.78,0,0,1,530,367.58Z" fill="#fff"/><path d="M543.07,362c0-4.77,3.21-7.68,6.54-7.68,3.72,0,5.82,2.67,5.82,6.84a9.54,9.54,0,0,1-.09,1.41H545.5c.18,3.09,2.07,5.07,4.86,5.07a6.59,6.59,0,0,0,3.63-1.14l.87,1.62a8.68,8.68,0,0,1-4.8,1.5C546.16,369.59,543.07,366.74,543.07,362Zm10.2-1.2c0-2.94-1.32-4.53-3.6-4.53-2,0-3.9,1.65-4.2,4.53Z" fill="#fff"/><path d="M559,354.65h2l.21,2.64h.09c1-1.83,2.49-3,4.14-3a3.62,3.62,0,0,1,1.56.3l-.48,2.16a4.08,4.08,0,0,0-1.41-.24c-1.23,0-2.7.9-3.69,3.36v9.36H559Z" fill="#fff"/><path d="M568.08,354.65h2.55l2.77,8.28c.42,1.44.89,2.91,1.35,4.29h.12c.42-1.38.89-2.85,1.31-4.29l2.77-8.28h2.43l-5.17,14.58h-2.88Z" fill="#fff"/><path d="M583,362c0-4.77,3.21-7.68,6.54-7.68,3.71,0,5.81,2.67,5.81,6.84a9.54,9.54,0,0,1-.09,1.41h-9.83c.18,3.09,2.07,5.07,4.86,5.07a6.61,6.61,0,0,0,3.63-1.14l.87,1.62a8.74,8.74,0,0,1-4.8,1.5C586.08,369.59,583,366.74,583,362Zm10.19-1.2c0-2.94-1.31-4.53-3.6-4.53-2,0-3.89,1.65-4.19,4.53Z" fill="#fff"/><path d="M599,354.65h2l.21,2.64h.08c1-1.83,2.5-3,4.14-3a3.7,3.7,0,0,1,1.57.3l-.49,2.16a4,4,0,0,0-1.41-.24c-1.22,0-2.69.9-3.68,3.36v9.36H599Z" fill="#fff"/><path d="M609.36,366.29V347.87h2.46v18.6c0,.78.33,1.08.69,1.08a2.07,2.07,0,0,0,.54-.06l.33,1.86a3.31,3.31,0,0,1-1.41.24C610.11,369.59,609.36,368.42,609.36,366.29Z" fill="#fff"/><path d="M615.93,362c0-4.77,3.21-7.68,6.54-7.68,3.72,0,5.82,2.67,5.82,6.84a9.54,9.54,0,0,1-.09,1.41h-9.84c.18,3.09,2.07,5.07,4.86,5.07a6.59,6.59,0,0,0,3.63-1.14l.87,1.62a8.68,8.68,0,0,1-4.8,1.5C619,369.59,615.93,366.74,615.93,362Zm10.2-1.2c0-2.94-1.32-4.53-3.6-4.53-2,0-3.9,1.65-4.2,4.53Z" fill="#fff"/><path d="M630.27,367.58l1.23-1.65a6.56,6.56,0,0,0,4.29,1.74c1.92,0,2.88-1,2.88-2.28,0-1.5-1.74-2.16-3.33-2.76-2.07-.75-4.35-1.74-4.35-4.2s1.86-4.14,5-4.14a7.28,7.28,0,0,1,4.53,1.65l-1.17,1.56a5.41,5.41,0,0,0-3.33-1.29c-1.83,0-2.67,1-2.67,2.1,0,1.38,1.59,1.89,3.24,2.52,2.1.78,4.44,1.65,4.44,4.41,0,2.37-1.89,4.35-5.34,4.35A8.78,8.78,0,0,1,630.27,367.58Z" fill="#fff"/><path d="M642.84,367.58l1.23-1.65a6.56,6.56,0,0,0,4.29,1.74c1.92,0,2.88-1,2.88-2.28,0-1.5-1.74-2.16-3.33-2.76-2.07-.75-4.35-1.74-4.35-4.2s1.86-4.14,5-4.14a7.28,7.28,0,0,1,4.53,1.65l-1.17,1.56a5.41,5.41,0,0,0-3.33-1.29c-1.83,0-2.67,1-2.67,2.1,0,1.38,1.59,1.89,3.24,2.52,2.1.78,4.44,1.65,4.44,4.41,0,2.37-1.89,4.35-5.34,4.35A8.78,8.78,0,0,1,642.84,367.58Z" fill="#fff"/><path d="M661.29,354.65h2.52l2.16,8.43c.33,1.38.6,2.7.87,4.05H667c.33-1.35.63-2.7,1-4.05l2.25-8.43h2.4l2.28,8.43c.36,1.38.69,2.7,1,4.05H676c.33-1.35.6-2.67.9-4.05l2.13-8.43h2.34l-3.9,14.58h-3l-2.1-7.83c-.36-1.38-.63-2.73-1-4.2h-.12c-.33,1.47-.63,2.85-1,4.23l-2,7.8h-2.88Z" fill="#fff"/><path d="M683.37,362c0-4.89,3.18-7.68,6.75-7.68s6.75,2.79,6.75,7.68-3.18,7.62-6.75,7.62S683.37,366.8,683.37,362Zm11,0c0-3.36-1.68-5.64-4.2-5.64s-4.2,2.28-4.2,5.64,1.71,5.58,4.2,5.58S694.32,365.3,694.32,362Z" fill="#fff"/><path d="M700.71,354.65h2l.21,2.64h.09c1-1.83,2.49-3,4.14-3a3.62,3.62,0,0,1,1.56.3l-.48,2.16a4.08,4.08,0,0,0-1.41-.24c-1.23,0-2.7.9-3.69,3.36v9.36h-2.46Z" fill="#fff"/><path d="M711.12,366.29V347.87h2.46v18.6c0,.78.33,1.08.69,1.08a2.07,2.07,0,0,0,.54-.06l.33,1.86a3.31,3.31,0,0,1-1.41.24C711.87,369.59,711.12,368.42,711.12,366.29Z" fill="#fff"/><path d="M717.72,362c0-4.74,3-7.68,6.33-7.68a6,6,0,0,1,4.08,1.68l-.12-2.49v-5.61h2.49v21.36h-2l-.21-1.71h-.09a6.58,6.58,0,0,1-4.41,2.07C720.09,369.59,717.72,366.83,717.72,362ZM728,365.51v-7.62a5.07,5.07,0,0,0-3.54-1.53c-2.34,0-4.2,2.25-4.2,5.58,0,3.48,1.47,5.58,4,5.58A4.93,4.93,0,0,0,728,365.51Z" fill="#fff"/></g></svg>