<svg id="Layer_1" data-name="Layer 1" xmlns="http://www.w3.org/2000/svg" viewBox="0 0 220.1 111.77"><title>cloudstate-logo</title><path d="M21.35,107.31a12.45,12.45,0,0,1-9.45,4.46,12.16,12.16,0,0,1,0-24.31,12.38,12.38,0,0,1,9.2,4.15l-2.85,2.55a8.54,8.54,0,0,0-6.35-2.8c-4.65,0-7.7,3.7-7.7,8.25s3.05,8.25,7.7,8.25a8.48,8.48,0,0,0,6.75-3.3Z" fill="#fff"/><path d="M24.29,80.41h4.2v30.76h-4.2Z" fill="#fff"/><path d="M56.05,99.61a11.9,11.9,0,1,1-11.9-12.15A11.84,11.84,0,0,1,56.05,99.61Zm-4.2,0c0-4.55-3.05-8.25-7.7-8.25s-7.7,3.7-7.7,8.25,3,8.25,7.7,8.25S51.85,104.16,51.85,99.61Z" fill="#fff"/><path d="M58.85,102.91V88.06h4.2v14.15c0,4,2.45,5.65,5.55,5.65,3.9,0,5.75-3.8,5.75-3.8v-16h4.2v23.11h-3.9v-3.56a8.18,8.18,0,0,1-7.1,4.16A8.42,8.42,0,0,1,58.85,102.91Z" fill="#fff"/><path d="M100,90.91V80.41h4.2v30.76h-3.85v-3.36a9,9,0,0,1-7.8,4c-6.25,0-11.2-5.36-11.2-12.16s5-12.15,11.2-12.15A9.18,9.18,0,0,1,100,90.91Zm0,4.45a8.2,8.2,0,0,0-6.8-4c-4.6,0-7.65,3.7-7.65,8.25s3,8.25,7.65,8.25a8.2,8.2,0,0,0,6.8-4Z" fill="#fff"/><path d="M114.15,103.11s3.15,3.4,7.15,3.4c2.45,0,4.5-.7,4.5-2.15s-1.1-1.85-4.7-2.6c-4.7-1-8.8-3-8.8-7.5,0-3.7,3.7-7.4,10.2-7.4a15.13,15.13,0,0,1,8.9,2.9l-3,4.4a11,11,0,0,0-5.9-2c-2.25,0-4.3.8-4.3,2.25s1.6,1.8,5.6,2.65c4.7,1,8,2.55,8,7.45,0,4.05-4.3,7.31-10.35,7.31a14.77,14.77,0,0,1-10.7-4.31Z" fill="#fff"/><path d="M132.55,87.46h4.65v-7h6v7h7.15v5.4H143.2v9.55c0,2.9,1.5,3.75,3.1,3.75a4.75,4.75,0,0,0,2.5-.85l2.2,4.9a10.75,10.75,0,0,1-5.7,1.56c-4.6,0-8.1-3.35-8.1-8.41V92.86h-4.65Z" fill="#fff"/><path d="M174.05,95.71v15.46H168.5v-3a9.59,9.59,0,0,1-7.8,3.6c-4.45,0-8.55-2.91-8.55-8,0-4.55,4.15-7.85,9.3-7.85a11.52,11.52,0,0,1,6.6,1.7V96.31c0-3.1-3-4.1-5.1-4.1a19.24,19.24,0,0,0-7.1,1.75L153.9,89a24,24,0,0,1,9.35-2.15C170.05,86.86,174.05,90.31,174.05,95.71Zm-6,8.3v-2.45a12,12,0,0,0-5.4-1.2c-1.85,0-4.4.8-4.4,3.35s2.45,3.05,4.3,3.05A7,7,0,0,0,168.05,104Z" fill="#fff"/><path d="M176.15,87.46h4.65v-7h6v7H194v5.4H186.8v9.55c0,2.9,1.5,3.75,3.1,3.75a4.75,4.75,0,0,0,2.5-.85l2.2,4.9a10.75,10.75,0,0,1-5.7,1.56c-4.6,0-8.1-3.35-8.1-8.41V92.86h-4.65Z" fill="#fff"/><path d="M220.1,99.21c0,.45,0,1.35,0,2.25h-17.7a6.76,6.76,0,0,0,6.65,4.8,9.54,9.54,0,0,0,6.5-2.4l3,4.5a15.16,15.16,0,0,1-9.5,3.41,12.47,12.47,0,0,1-12.75-12.46c0-7,5.05-12.45,11.9-12.45A11.92,11.92,0,0,1,220.1,99.21Zm-6-2.1c-.1-2-2-4.8-5.95-4.8a5.45,5.45,0,0,0-5.8,4.8Z" fill="#fff"/><path d="M141.39,20.92v-.17a20.74,20.74,0,0,0-40.56-6.14,13,13,0,0,0-7.35-2.27A13.35,13.35,0,0,0,81,21.09a17.72,17.72,0,0,1,23.26,11.12,14.75,14.75,0,0,1,12.32,19.17h18.9a15.81,15.81,0,0,0,5.94-30.46Z" fill="#fff"/><path d="M103.39,34.14l-.7,0-.19-.68A15.79,15.79,0,0,0,87.34,21.9,15.53,15.53,0,0,0,73,31.2l-.25.56-.62,0a13.92,13.92,0,0,0,.64,27.82h29.77a12.75,12.75,0,0,0,.87-25.47Z" fill="#fff"/><path d="M96.79,52.83a6,6,0,0,0-1.53,4v6.87a4,4,0,0,0,2.14,3.54c3.87,2,10.87,3.38,18.86,3.38s15-1.35,18.86-3.38a4,4,0,0,0,2.14-3.54V56.82a6,6,0,0,0-1.52-4" fill="#1070b2" stroke="#fff" stroke-linejoin="round" stroke-width="2"/><path d="M96.79,38.83a6,6,0,0,0-1.53,4v6.87a4,4,0,0,0,2.14,3.54c3.87,2,10.87,3.38,18.86,3.38s15-1.35,18.86-3.38a4,4,0,0,0,2.14-3.54V42.82a6,6,0,0,0-1.52-4" fill="#1070b2" stroke="#fff" stroke-linejoin="round" stroke-width="2"/><path d="M137.26,27.53A4,4,0,0,0,135.12,24c-3.86-2-10.86-3.37-18.86-3.37S101.27,22,97.4,24a4,4,0,0,0-2.14,3.55v8.16a4,4,0,0,0,2.14,3.54c3.87,2,10.87,3.38,18.86,3.38s15-1.35,18.86-3.38a4,4,0,0,0,2.14-3.54Z" fill="#1070b2" stroke="#fff" stroke-linejoin="round" stroke-width="2"/><path d="M131.26,26.61a58.4,58.4,0,0,1-15,2,58.5,58.5,0,0,1-15-2" fill="#1070b2" stroke="#fff" stroke-linecap="round" stroke-linejoin="round" stroke-width="2"/></svg>