<svg id="Layer_1" data-name="Layer 1" xmlns="http://www.w3.org/2000/svg" viewBox="0 0 1024 576"><title>cloudstate-towards-serverless-2-0</title><rect x="-29" y="-26" width="1082" height="628" fill="#1070b2"/><g id="text"><path d="M336.6,320.86a24.91,24.91,0,0,1-18.9,8.91c-13.6,0-23.8-10.71-23.8-24.31s10.2-24.3,23.8-24.3a24.74,24.74,0,0,1,18.4,8.3l-5.7,5.1a17.07,17.07,0,0,0-12.7-5.6c-9.3,0-15.4,7.4-15.4,16.5s6.1,16.5,15.4,16.5a17,17,0,0,0,13.51-6.6Z" fill="#fff"/><path d="M342.48,267.06h8.4v61.5h-8.4Z" fill="#fff"/><path d="M406,305.46c0,13.6-10.2,24.31-23.8,24.31s-23.8-10.71-23.8-24.31,10.2-24.3,23.8-24.3S406,291.86,406,305.46Zm-8.4,0c0-9.1-6.1-16.5-15.4-16.5s-15.4,7.4-15.4,16.5,6.1,16.5,15.4,16.5S397.6,314.56,397.6,305.46Z" fill="#fff"/><path d="M411.6,312.06v-29.7H420v28.3c0,7.9,4.9,11.3,11.1,11.3,7.8,0,11.5-7.6,11.5-7.6v-32H451v46.2h-7.8v-7.1a16.37,16.37,0,0,1-14.2,8.31C419.8,329.77,411.6,323.46,411.6,312.06Z" fill="#fff"/><path d="M493.9,288.06v-21h8.4v61.5h-7.7v-6.7s-4.5,7.91-15.6,7.91c-12.5,0-22.4-10.71-22.4-24.31s9.9-24.3,22.4-24.3C489.2,281.16,493.9,288.06,493.9,288.06Zm0,8.9s-4.4-8-13.6-8-15.3,7.4-15.3,16.5,5.9,16.5,15.3,16.5c9.2,0,13.6-8,13.6-8Z" fill="#fff"/><path d="M522.2,312.46s6.3,6.8,14.3,6.8c4.9,0,9-1.4,9-4.3,0-3.1-2.2-3.7-9.4-5.2-9.4-2-17.6-6-17.6-15,0-7.4,7.4-14.8,20.4-14.8a30.25,30.25,0,0,1,17.8,5.8l-6,8.8s-5.4-4.1-11.8-4.1c-4.5,0-8.6,1.6-8.6,4.5s3.2,3.6,11.2,5.3c9.4,2,16.1,5.1,16.1,14.9,0,8.1-8.6,14.61-20.7,14.61-13.9,0-21.4-8.61-21.4-8.61Z" fill="#fff"/><path d="M559,281.16h9.3v-14.1h12v14.1h14.3V292H580.3v19.1c0,5.8,3,7.5,6.2,7.5a9.5,9.5,0,0,0,5-1.7l4.4,9.8a21.54,21.54,0,0,1-11.4,3.11c-9.2,0-16.2-6.71-16.2-16.81V292H559Z" fill="#fff"/><path d="M642,297.66v30.9H630.9v-6s-4.9,7.21-15.6,7.21c-8.9,0-17.11-5.81-17.11-15.91,0-9.1,8.31-15.7,18.61-15.7,8.7,0,13.2,3.4,13.2,3.4v-2.7c0-6.2-6-8.2-10.2-8.2-6.9,0-14.2,3.5-14.2,3.5l-3.91-9.9A48.08,48.08,0,0,1,620.4,280C634,280,642,286.86,642,297.66Zm-12,16.6v-4.9a24,24,0,0,0-10.8-2.4c-3.7,0-8.8,1.6-8.8,6.7s4.9,6.1,8.6,6.1A14.06,14.06,0,0,0,630,314.26Z" fill="#fff"/><path d="M644.19,281.16h9.31v-14.1h12v14.1h14.3V292H665.5v19.1c0,5.8,3,7.5,6.2,7.5a9.5,9.5,0,0,0,5-1.7l4.4,9.8a21.54,21.54,0,0,1-11.4,3.11c-9.2,0-16.2-6.71-16.2-16.81V292h-9.31Z" fill="#fff"/><path d="M730.1,304.66c0,.9,0,2.7-.1,4.5H694.59c.91,4.2,5.8,9.6,13.3,9.6a19.12,19.12,0,0,0,13-4.8l6,9a30.34,30.34,0,0,1-19,6.81c-14.4,0-25.5-11-25.5-24.91s10.1-24.9,23.8-24.9C719.19,280,730.1,290.06,730.1,304.66Zm-12-4.2c-.2-4.1-4-9.6-11.91-9.6-7.69,0-11.19,5.4-11.6,9.6Z" fill="#fff"/></g><g id="icon"><path d="M484.43,221.87a12,12,0,0,1,3.05-8h0a8,8,0,0,1-3.05-6.28V193.87a12,12,0,0,1,3.05-8h0a8,8,0,0,1-3.05-6.28V163.3a8,8,0,0,1,2.21-5.51A31.44,31.44,0,0,0,468.58,152a31.08,31.08,0,0,0-28.72,18.59l-.5,1.12-1.23.06a27.83,27.83,0,0,0,1.28,55.64h45Z" fill="#fff"/><path d="M576.67,150.07c0-.11,0-.22,0-.34a41.49,41.49,0,0,0-81.12-12.28,26,26,0,0,0-14.69-4.53,26.71,26.71,0,0,0-25,17.5,35.25,35.25,0,0,1,34.38,5.05c8-3.64,21.21-6,36.21-6,16,0,30,2.71,37.72,6.75a8,8,0,0,1,4.28,7.1v16.31a8,8,0,0,1-3.06,6.28,12,12,0,0,1,3.06,8v13.74a8,8,0,0,1-.71,3.23,31.6,31.6,0,0,0,8.95-60.77Z" fill="#fff"/><path d="M487.48,213.89a12,12,0,0,0-3.05,8v13.74a8,8,0,0,0,4.28,7.09c7.73,4.05,21.73,6.75,37.72,6.75s30-2.7,37.72-6.75a8,8,0,0,0,4.28-7.09V221.87a12,12,0,0,0-3.06-8" fill="none" stroke="#fff" stroke-linejoin="round" stroke-width="2"/><path d="M487.48,185.89a12,12,0,0,0-3.05,8v13.74a8,8,0,0,0,4.28,7.09c7.73,4.05,21.73,6.75,37.72,6.75s30-2.7,37.72-6.75a8,8,0,0,0,4.28-7.09V193.87a12,12,0,0,0-3.06-8" fill="none" stroke="#fff" stroke-linejoin="round" stroke-width="2"/><path d="M568.43,163.3a8,8,0,0,0-4.28-7.1c-7.73-4-21.73-6.75-37.72-6.75s-30,2.71-37.72,6.75a8,8,0,0,0-4.28,7.1v16.31a8,8,0,0,0,4.28,7.09c7.73,4.05,21.73,6.75,37.72,6.75s30-2.7,37.72-6.75a8,8,0,0,0,4.28-7.09Z" fill="none" stroke="#fff" stroke-linejoin="round" stroke-width="2"/><path d="M556.43,161.45a114.5,114.5,0,0,1-60,0" fill="none" stroke="#fff" stroke-linecap="round" stroke-linejoin="round" stroke-width="2"/></g><g opacity="0.8"><path d="M309.08,352.86h-8.91v-3.15h21.6v3.15h-8.91v26.37h-3.78Z" fill="#fff"/><path d="M322.13,368.34c0-7.33,4.77-11.52,10.12-11.52s10.13,4.19,10.13,11.52-4.77,11.43-10.13,11.43S322.13,375.59,322.13,368.34Zm16.42,0c0-5-2.52-8.46-6.3-8.46s-6.3,3.42-6.3,8.46,2.57,8.37,6.3,8.37S338.55,373.34,338.55,368.34Z" fill="#fff"/><path d="M345.35,357.36h3.78L352.37,370c.49,2.07.9,4.05,1.3,6.07h.18c.5-2,.95-4.05,1.49-6.07l3.37-12.65h3.6L365.73,370c.54,2.07,1,4.05,1.53,6.07h.18c.5-2,.9-4,1.35-6.07l3.2-12.65h3.51l-5.85,21.87h-4.5L362,367.49c-.54-2.07-.95-4.1-1.49-6.3h-.18c-.49,2.2-.94,4.27-1.53,6.34l-3.06,11.7h-4.32Z" fill="#fff"/><path d="M378.47,373.56c0-4.77,4.09-7.15,13.41-8.19,0-2.79-.9-5.49-4.5-5.49a11.91,11.91,0,0,0-6.53,2.34l-1.44-2.56a16.22,16.22,0,0,1,8.59-2.84c5.36,0,7.61,3.56,7.61,9v13.41h-3.06l-.31-2.61h-.14c-2.07,1.71-4.5,3.15-7.24,3.15C381.21,379.77,378.47,377.48,378.47,373.56Zm13.41.32V367.8c-7.3.9-9.81,2.7-9.81,5.49,0,2.48,1.71,3.51,3.87,3.51S389.76,375.77,391.88,373.88Z" fill="#fff"/><path d="M402.5,357.36h3.06l.31,4H406c1.48-2.74,3.73-4.5,6.21-4.5a5.55,5.55,0,0,1,2.34.45l-.73,3.24a6.17,6.17,0,0,0-2.11-.36c-1.84,0-4.05,1.35-5.53,5v14H402.5Z" fill="#fff"/><path d="M416.08,368.34c0-7.11,4.5-11.52,9.5-11.52,2.52,0,4.18.95,6.12,2.52l-.18-3.73v-8.42h3.73v32h-3.06l-.31-2.56h-.13a9.88,9.88,0,0,1-6.62,3.1C419.64,379.77,416.08,375.63,416.08,368.34Zm15.44,5.31V362.22a7.63,7.63,0,0,0-5.31-2.29c-3.51,0-6.3,3.37-6.3,8.37,0,5.22,2.21,8.37,6,8.37C428,376.67,429.72,375.68,431.52,373.65Z" fill="#fff"/><path d="M440.21,376.76l1.84-2.48a9.84,9.84,0,0,0,6.43,2.61c2.88,0,4.32-1.53,4.32-3.42,0-2.25-2.61-3.24-5-4.14-3.1-1.12-6.52-2.61-6.52-6.3,0-3.51,2.79-6.21,7.51-6.21a10.9,10.9,0,0,1,6.79,2.48l-1.75,2.34a8.11,8.11,0,0,0-5-1.94c-2.74,0-4,1.49-4,3.15,0,2.07,2.38,2.84,4.86,3.78,3.15,1.17,6.66,2.48,6.66,6.62,0,3.55-2.84,6.52-8,6.52A13.16,13.16,0,0,1,440.21,376.76Z" fill="#fff"/><path d="M468.69,375.41l2.25-2.61a11.56,11.56,0,0,0,8.14,3.69c3.87,0,6.17-1.94,6.17-4.82s-2.12-4-4.91-5.22l-4.23-1.84c-2.79-1.17-6-3.29-6-7.61,0-4.5,3.91-7.83,9.27-7.83a12.26,12.26,0,0,1,8.73,3.65l-2,2.43a9.41,9.41,0,0,0-6.7-2.79c-3.29,0-5.49,1.66-5.49,4.32,0,2.83,2.56,3.91,4.9,4.9l4.19,1.8c3.42,1.49,6.07,3.51,6.07,7.88,0,4.68-3.82,8.41-10,8.41A14.32,14.32,0,0,1,468.69,375.41Z" fill="#fff"/><path d="M492.9,368.34c0-7.15,4.81-11.52,9.81-11.52,5.58,0,8.73,4,8.73,10.26a14.27,14.27,0,0,1-.14,2.12H496.54c.27,4.63,3.11,7.6,7.29,7.6a9.86,9.86,0,0,0,5.45-1.71l1.3,2.43a13,13,0,0,1-7.2,2.25C497.53,379.77,492.9,375.5,492.9,368.34Zm15.3-1.8c0-4.41-2-6.79-5.4-6.79-3.06,0-5.85,2.47-6.3,6.79Z" fill="#fff"/><path d="M516.84,357.36h3.06l.31,4h.14c1.48-2.74,3.73-4.5,6.21-4.5a5.52,5.52,0,0,1,2.34.45l-.72,3.24a6.27,6.27,0,0,0-2.12-.36c-1.84,0-4,1.35-5.53,5v14h-3.69Z" fill="#fff"/><path d="M530.43,357.36h3.82l4.14,12.42c.63,2.16,1.35,4.37,2,6.44h.18c.63-2.07,1.35-4.28,2-6.44l4.14-12.42h3.64l-7.74,21.87H538.3Z" fill="#fff"/><path d="M552.79,368.34c0-7.15,4.82-11.52,9.81-11.52,5.58,0,8.73,4,8.73,10.26a14.4,14.4,0,0,1-.13,2.12H556.44c.27,4.63,3.1,7.6,7.29,7.6a9.83,9.83,0,0,0,5.44-1.71l1.31,2.43a13,13,0,0,1-7.2,2.25C557.43,379.77,552.79,375.5,552.79,368.34Zm15.3-1.8c0-4.41-2-6.79-5.4-6.79-3.06,0-5.85,2.47-6.3,6.79Z" fill="#fff"/><path d="M576.73,357.36h3.06l.32,4h.13c1.49-2.74,3.74-4.5,6.21-4.5a5.49,5.49,0,0,1,2.34.45l-.72,3.24a6.21,6.21,0,0,0-2.11-.36c-1.85,0-4.05,1.35-5.54,5v14h-3.69Z" fill="#fff"/><path d="M592.35,374.82V347.19H596v27.9c0,1.17.49,1.62,1,1.62a3.06,3.06,0,0,0,.81-.09l.5,2.79a4.93,4.93,0,0,1-2.12.36C593.47,379.77,592.35,378,592.35,374.82Z" fill="#fff"/><path d="M602.2,368.34c0-7.15,4.82-11.52,9.81-11.52,5.58,0,8.73,4,8.73,10.26a14.4,14.4,0,0,1-.13,2.12H605.85c.27,4.63,3.1,7.6,7.29,7.6a9.83,9.83,0,0,0,5.44-1.71l1.3,2.43a12.92,12.92,0,0,1-7.19,2.25C606.84,379.77,602.2,375.5,602.2,368.34Zm15.3-1.8c0-4.41-2-6.79-5.4-6.79-3.06,0-5.85,2.47-6.3,6.79Z" fill="#fff"/><path d="M623.71,376.76l1.84-2.48a9.87,9.87,0,0,0,6.44,2.61c2.88,0,4.32-1.53,4.32-3.42,0-2.25-2.61-3.24-5-4.14-3.1-1.12-6.52-2.61-6.52-6.3,0-3.51,2.79-6.21,7.51-6.21a10.93,10.93,0,0,1,6.8,2.48l-1.76,2.34a8.06,8.06,0,0,0-5-1.94c-2.75,0-4,1.49-4,3.15,0,2.07,2.39,2.84,4.87,3.78,3.14,1.17,6.65,2.48,6.65,6.62,0,3.55-2.83,6.52-8,6.52A13.16,13.16,0,0,1,623.71,376.76Z" fill="#fff"/><path d="M642.56,376.76l1.85-2.48a9.82,9.82,0,0,0,6.43,2.61c2.88,0,4.32-1.53,4.32-3.42,0-2.25-2.61-3.24-5-4.14-3.11-1.12-6.53-2.61-6.53-6.3,0-3.51,2.79-6.21,7.52-6.21A10.9,10.9,0,0,1,658,359.3l-1.75,2.34a8.11,8.11,0,0,0-5-1.94c-2.74,0-4,1.49-4,3.15,0,2.07,2.38,2.84,4.86,3.78,3.15,1.17,6.66,2.48,6.66,6.62,0,3.55-2.84,6.52-8,6.52A13.16,13.16,0,0,1,642.56,376.76Z" fill="#fff"/><path d="M671,377c8.64-8.6,13.5-13.77,13.5-18.41,0-3.28-1.8-5.62-5.45-5.62-2.38,0-4.45,1.53-6.12,3.46l-2.11-2.11c2.38-2.61,5-4.37,8.68-4.37,5.31,0,8.6,3.38,8.6,8.46,0,5.4-4.91,10.76-11.7,17.87,1.57-.14,3.33-.27,4.81-.27h8.33v3.19H671Z" fill="#fff"/><path d="M694.45,377a2.68,2.68,0,1,1,5.35,0,2.68,2.68,0,1,1-5.35,0Z" fill="#fff"/><path d="M704.71,364.79c0-9.63,3.46-14.81,9.22-14.81s9.18,5.18,9.18,14.81-3.46,15-9.18,15S704.71,374.42,704.71,364.79Zm14.8,0c0-8.42-2.25-11.84-5.58-11.84s-5.62,3.42-5.62,11.84,2.25,12,5.62,12S719.51,373.2,719.51,364.79Z" fill="#fff"/></g></svg>