<svg id="Layer_1" data-name="Layer 1" xmlns="http://www.w3.org/2000/svg" viewBox="0 0 1024 576"><title>cloudstate-social-master</title><rect x="-29" y="-26" width="1082" height="628" style="fill:#1070b2"/><g id="text"><path d="M336.6,320.86a24.91,24.91,0,0,1-18.9,8.91c-13.6,0-23.8-10.71-23.8-24.31s10.2-24.3,23.8-24.3a24.74,24.74,0,0,1,18.4,8.3l-5.7,5.1a17.07,17.07,0,0,0-12.7-5.6c-9.3,0-15.4,7.4-15.4,16.5s6.1,16.5,15.4,16.5a17,17,0,0,0,13.51-6.6Z" style="fill:#fff"/><path d="M342.48,267.06h8.4v61.5h-8.4Z" style="fill:#fff"/><path d="M406,305.46c0,13.6-10.2,24.31-23.8,24.31s-23.8-10.71-23.8-24.31,10.2-24.3,23.8-24.3S406,291.86,406,305.46Zm-8.4,0c0-9.1-6.1-16.5-15.4-16.5s-15.4,7.4-15.4,16.5,6.1,16.5,15.4,16.5S397.6,314.56,397.6,305.46Z" style="fill:#fff"/><path d="M411.6,312.06v-29.7H420v28.3c0,7.9,4.9,11.3,11.1,11.3,7.8,0,11.5-7.6,11.5-7.6v-32H451v46.2h-7.8v-7.1a16.37,16.37,0,0,1-14.2,8.31C419.8,329.77,411.6,323.46,411.6,312.06Z" style="fill:#fff"/><path d="M493.9,288.06v-21h8.4v61.5h-7.7v-6.7s-4.5,7.91-15.6,7.91c-12.5,0-22.4-10.71-22.4-24.31s9.9-24.3,22.4-24.3C489.2,281.16,493.9,288.06,493.9,288.06Zm0,8.9s-4.4-8-13.6-8-15.3,7.4-15.3,16.5,5.9,16.5,15.3,16.5c9.2,0,13.6-8,13.6-8Z" style="fill:#fff"/><path d="M522.2,312.46s6.3,6.8,14.3,6.8c4.9,0,9-1.4,9-4.3,0-3.1-2.2-3.7-9.4-5.2-9.4-2-17.6-6-17.6-15,0-7.4,7.4-14.8,20.4-14.8a30.25,30.25,0,0,1,17.8,5.8l-6,8.8s-5.4-4.1-11.8-4.1c-4.5,0-8.6,1.6-8.6,4.5s3.2,3.6,11.2,5.3c9.4,2,16.1,5.1,16.1,14.9,0,8.1-8.6,14.61-20.7,14.61-13.9,0-21.4-8.61-21.4-8.61Z" style="fill:#fff"/><path d="M559,281.16h9.3v-14.1h12v14.1h14.3V292H580.3v19.1c0,5.8,3,7.5,6.2,7.5a9.5,9.5,0,0,0,5-1.7l4.4,9.8a21.54,21.54,0,0,1-11.4,3.11c-9.2,0-16.2-6.71-16.2-16.81V292H559Z" style="fill:#fff"/><path d="M642,297.66v30.9H630.9v-6s-4.9,7.21-15.6,7.21c-8.9,0-17.11-5.81-17.11-15.91,0-9.1,8.31-15.7,18.61-15.7,8.7,0,13.2,3.4,13.2,3.4v-2.7c0-6.2-6-8.2-10.2-8.2-6.9,0-14.2,3.5-14.2,3.5l-3.91-9.9A48.08,48.08,0,0,1,620.4,280C634,280,642,286.86,642,297.66Zm-12,16.6v-4.9a24,24,0,0,0-10.8-2.4c-3.7,0-8.8,1.6-8.8,6.7s4.9,6.1,8.6,6.1A14.06,14.06,0,0,0,630,314.26Z" style="fill:#fff"/><path d="M644.19,281.16h9.31v-14.1h12v14.1h14.3V292H665.5v19.1c0,5.8,3,7.5,6.2,7.5a9.5,9.5,0,0,0,5-1.7l4.4,9.8a21.54,21.54,0,0,1-11.4,3.11c-9.2,0-16.2-6.71-16.2-16.81V292h-9.31Z" style="fill:#fff"/><path d="M730.1,304.66c0,.9,0,2.7-.1,4.5H694.59c.91,4.2,5.8,9.6,13.3,9.6a19.12,19.12,0,0,0,13-4.8l6,9a30.34,30.34,0,0,1-19,6.81c-14.4,0-25.5-11-25.5-24.91s10.1-24.9,23.8-24.9C719.19,280,730.1,290.06,730.1,304.66Zm-12-4.2c-.2-4.1-4-9.6-11.91-9.6-7.69,0-11.19,5.4-11.6,9.6Z" style="fill:#fff"/></g><g id="icon"><path d="M484.43,221.87a12,12,0,0,1,3.05-8h0a8,8,0,0,1-3.05-6.28V193.87a12,12,0,0,1,3.05-8h0a8,8,0,0,1-3.05-6.28V163.3a8,8,0,0,1,2.21-5.51A31.44,31.44,0,0,0,468.58,152a31.08,31.08,0,0,0-28.72,18.59l-.5,1.12-1.23.06a27.83,27.83,0,0,0,1.28,55.64h45Z" style="fill:#fff"/><path d="M576.67,150.07c0-.11,0-.22,0-.34a41.49,41.49,0,0,0-81.12-12.28,26,26,0,0,0-14.69-4.53,26.71,26.71,0,0,0-25,17.5,35.25,35.25,0,0,1,34.38,5.05c8-3.64,21.21-6,36.21-6,16,0,30,2.71,37.72,6.75a8,8,0,0,1,4.28,7.1v16.31a8,8,0,0,1-3.06,6.28,12,12,0,0,1,3.06,8v13.74a8,8,0,0,1-.71,3.23,31.6,31.6,0,0,0,8.95-60.77Z" style="fill:#fff"/><path d="M487.48,213.89a12,12,0,0,0-3.05,8v13.74a8,8,0,0,0,4.28,7.09c7.73,4.05,21.73,6.75,37.72,6.75s30-2.7,37.72-6.75a8,8,0,0,0,4.28-7.09V221.87a12,12,0,0,0-3.06-8" style="fill:none;stroke:#fff;stroke-linejoin:round;stroke-width:2px"/><path d="M487.48,185.89a12,12,0,0,0-3.05,8v13.74a8,8,0,0,0,4.28,7.09c7.73,4.05,21.73,6.75,37.72,6.75s30-2.7,37.72-6.75a8,8,0,0,0,4.28-7.09V193.87a12,12,0,0,0-3.06-8" style="fill:none;stroke:#fff;stroke-linejoin:round;stroke-width:2px"/><path d="M568.43,163.3a8,8,0,0,0-4.28-7.1c-7.73-4-21.73-6.75-37.72-6.75s-30,2.71-37.72,6.75a8,8,0,0,0-4.28,7.1v16.31a8,8,0,0,0,4.28,7.09c7.73,4.05,21.73,6.75,37.72,6.75s30-2.7,37.72-6.75a8,8,0,0,0,4.28-7.09Z" style="fill:none;stroke:#fff;stroke-linejoin:round;stroke-width:2px"/><path d="M556.43,161.45a114.5,114.5,0,0,1-60,0" style="fill:none;stroke:#fff;stroke-linecap:round;stroke-linejoin:round;stroke-width:2px"/></g><g style="opacity:0.8"><path d="M298.68,355.14h3.77a7,7,0,0,1,5.31,1.93,7.77,7.77,0,0,1,1.82,5.55,10.33,10.33,0,0,1-.46,3.21,6.44,6.44,0,0,1-1.36,2.39,5.76,5.76,0,0,1-2.2,1.49,8.1,8.1,0,0,1-3,.52h-3.86Zm3.63,13.53a4.86,4.86,0,0,0,4-1.59,6.8,6.8,0,0,0,1.32-4.46,6.53,6.53,0,0,0-1.32-4.4,5,5,0,0,0-4-1.51h-1.72v12Z" style="fill:#fff"/><path d="M313.61,356.75a1.36,1.36,0,0,1-.94-.34,1.14,1.14,0,0,1-.38-.88,1.13,1.13,0,0,1,.38-.88,1.46,1.46,0,0,1,1.87,0,1.13,1.13,0,0,1,.38.88,1.14,1.14,0,0,1-.38.88A1.35,1.35,0,0,1,313.61,356.75Zm-1,2.3h1.89v11.18h-1.89Z" style="fill:#fff"/><path d="M318,367.7a7.79,7.79,0,0,0,1.5,1,4.21,4.21,0,0,0,1.79.36,2.34,2.34,0,0,0,1.65-.5,1.62,1.62,0,0,0,.56-1.24,1.29,1.29,0,0,0-.23-.76,2.29,2.29,0,0,0-.59-.57,4.2,4.2,0,0,0-.82-.42l-.92-.37c-.4-.14-.8-.29-1.19-.47a4.56,4.56,0,0,1-1.07-.65,3.07,3.07,0,0,1-.77-.88,2.35,2.35,0,0,1-.3-1.22,3.11,3.11,0,0,1,.26-1.25,3,3,0,0,1,.76-1,3.6,3.6,0,0,1,1.21-.66,5,5,0,0,1,1.61-.24,5.11,5.11,0,0,1,1.94.36,6.3,6.3,0,0,1,1.53.9l-.9,1.2a6.4,6.4,0,0,0-1.19-.72,3.4,3.4,0,0,0-1.36-.27,2.16,2.16,0,0,0-1.55.48,1.53,1.53,0,0,0-.5,1.13,1.12,1.12,0,0,0,.21.68,1.9,1.9,0,0,0,.55.5,4,4,0,0,0,.8.39l.93.36,1.21.48a4.53,4.53,0,0,1,1.09.64,3.1,3.1,0,0,1,.79.93,2.64,2.64,0,0,1,.31,1.33,3.27,3.27,0,0,1-.26,1.29,3.2,3.2,0,0,1-.78,1.06,3.83,3.83,0,0,1-1.29.72,5.33,5.33,0,0,1-1.76.27,6,6,0,0,1-2.28-.44,7.05,7.05,0,0,1-1.88-1.1Z" style="fill:#fff"/><path d="M328.26,360.59H326.6v-1.42l1.75-.12.23-3.13h1.59v3.13h3v1.54h-3v6.21a2.87,2.87,0,0,0,.37,1.6,1.52,1.52,0,0,0,1.35.57,2.56,2.56,0,0,0,.64-.1c.23-.06.44-.13.63-.2l.36,1.42a7.94,7.94,0,0,1-1,.29,4.89,4.89,0,0,1-1.07.13,3.68,3.68,0,0,1-1.5-.28,2.53,2.53,0,0,1-1-.76,2.87,2.87,0,0,1-.54-1.17,6.57,6.57,0,0,1-.16-1.52Z" style="fill:#fff"/><path d="M335.71,359.05h1.56l.16,2h.07a5.21,5.21,0,0,1,1.39-1.68,3,3,0,0,1,3-.39l-.37,1.65-.5-.14a3.22,3.22,0,0,0-.58,0,2.51,2.51,0,0,0-1.48.57,4.71,4.71,0,0,0-1.35,2v7.18h-1.88Z" style="fill:#fff"/><path d="M344.66,356.75a1.36,1.36,0,0,1-.94-.34,1.14,1.14,0,0,1-.38-.88,1.13,1.13,0,0,1,.38-.88,1.46,1.46,0,0,1,1.87,0,1.13,1.13,0,0,1,.38.88,1.14,1.14,0,0,1-.38.88A1.35,1.35,0,0,1,344.66,356.75Zm-1,2.3h1.89v11.18h-1.89Z" style="fill:#fff"/><path d="M349.35,353.85h1.88v4.47l0,2a8,8,0,0,1,1.65-1.12,4.18,4.18,0,0,1,1.84-.44,4.29,4.29,0,0,1,1.91.4,3.77,3.77,0,0,1,1.39,1.15,5.21,5.21,0,0,1,.85,1.79,8.52,8.52,0,0,1,.29,2.34,7.76,7.76,0,0,1-.39,2.55,5.77,5.77,0,0,1-1.06,1.91,4.36,4.36,0,0,1-1.54,1.18,4.3,4.3,0,0,1-1.84.41,4.1,4.1,0,0,1-1.62-.36,5.76,5.76,0,0,1-1.58-1H351l-.17,1.1h-1.51Zm1.88,13.9a4.79,4.79,0,0,0,1.46.91,4,4,0,0,0,1.28.26,2.66,2.66,0,0,0,1.28-.31,3.21,3.21,0,0,0,1-.87,4.33,4.33,0,0,0,.66-1.4,6.3,6.3,0,0,0,.25-1.86,8.71,8.71,0,0,0-.16-1.68,3.81,3.81,0,0,0-.52-1.3,2.55,2.55,0,0,0-.92-.84,2.86,2.86,0,0,0-1.35-.3,4.67,4.67,0,0,0-3,1.52Z" style="fill:#fff"/><path d="M362,359.05h1.91v6.83a4.08,4.08,0,0,0,.49,2.29,1.82,1.82,0,0,0,1.6.7,2.66,2.66,0,0,0,1.54-.45A6.88,6.88,0,0,0,369,367v-7.94h1.88v11.18h-1.56l-.16-1.75h-.07a7,7,0,0,1-1.65,1.47,3.66,3.66,0,0,1-2,.56,3,3,0,0,1-2.61-1.11,5.39,5.39,0,0,1-.82-3.26Z" style="fill:#fff"/><path d="M375,360.59h-1.66v-1.42l1.75-.12.23-3.13h1.58v3.13h3v1.54h-3v6.21a2.87,2.87,0,0,0,.38,1.6,1.52,1.52,0,0,0,1.35.57,2.56,2.56,0,0,0,.64-.1,5.68,5.68,0,0,0,.62-.2l.37,1.42a7.94,7.94,0,0,1-1,.29,4.89,4.89,0,0,1-1.07.13,3.65,3.65,0,0,1-1.5-.28,2.53,2.53,0,0,1-1-.76,2.75,2.75,0,0,1-.54-1.17,6.57,6.57,0,0,1-.16-1.52Z" style="fill:#fff"/><path d="M381.34,364.66a6.84,6.84,0,0,1,.42-2.47,5.88,5.88,0,0,1,1.13-1.85,4.86,4.86,0,0,1,1.6-1.16,4.48,4.48,0,0,1,1.86-.4,4.77,4.77,0,0,1,1.9.36,3.7,3.7,0,0,1,1.4,1.06,4.77,4.77,0,0,1,.87,1.66,7.23,7.23,0,0,1,.3,2.16,7.39,7.39,0,0,1-.07,1H383.2a4.43,4.43,0,0,0,1.12,2.87,3.42,3.42,0,0,0,2.61,1.06,4.42,4.42,0,0,0,1.48-.24,6,6,0,0,0,1.3-.64l.67,1.25a10.29,10.29,0,0,1-1.63.8,5.72,5.72,0,0,1-2.05.35,5.51,5.51,0,0,1-2.11-.41,4.92,4.92,0,0,1-1.7-1.15,5.27,5.27,0,0,1-1.14-1.83A6.93,6.93,0,0,1,381.34,364.66Zm7.82-.85a4.1,4.1,0,0,0-.73-2.63,2.44,2.44,0,0,0-2-.91,2.78,2.78,0,0,0-1.14.24,3.12,3.12,0,0,0-1,.69,3.67,3.67,0,0,0-.72,1.11,5.07,5.07,0,0,0-.38,1.5Z" style="fill:#fff"/><path d="M392.77,364.66a7,7,0,0,1,.4-2.45,6.07,6.07,0,0,1,1.07-1.85,5,5,0,0,1,1.54-1.17,4.22,4.22,0,0,1,1.84-.41,3.79,3.79,0,0,1,1.68.34,7.74,7.74,0,0,1,1.45.94l-.09-1.9v-4.31h1.91v16.38H401l-.16-1.31h-.07a7.2,7.2,0,0,1-1.52,1.12,3.89,3.89,0,0,1-1.86.47A4.16,4.16,0,0,1,394,369,6.65,6.65,0,0,1,392.77,364.66Zm2,0a5.32,5.32,0,0,0,.8,3.15,2.65,2.65,0,0,0,2.28,1.13,3,3,0,0,0,1.47-.38,5.25,5.25,0,0,0,1.38-1.16v-5.84a4.64,4.64,0,0,0-1.37-.91,3.49,3.49,0,0,0-1.34-.27,2.73,2.73,0,0,0-1.26.31,3.15,3.15,0,0,0-1,.88,4.34,4.34,0,0,0-.69,1.34A5.69,5.69,0,0,0,394.73,364.64Z" style="fill:#fff"/><path d="M411.22,366.94a6.2,6.2,0,0,0,1.89,1.37,5.2,5.2,0,0,0,2.27.52,3.56,3.56,0,0,0,2.32-.68,2.38,2.38,0,0,0,.63-2.76,2.1,2.1,0,0,0-.52-.69,3.94,3.94,0,0,0-.8-.52l-1-.48-2.16-.94a11.2,11.2,0,0,1-1.08-.56,4.16,4.16,0,0,1-1-.78,3.61,3.61,0,0,1-.71-1.09,3.52,3.52,0,0,1-.28-1.46,3.57,3.57,0,0,1,.36-1.59,4.08,4.08,0,0,1,1-1.28,4.59,4.59,0,0,1,1.49-.83,5.78,5.78,0,0,1,1.9-.3,6.16,6.16,0,0,1,2.51.51,6.52,6.52,0,0,1,1.95,1.35L419,358a5.64,5.64,0,0,0-1.53-1.05,4.6,4.6,0,0,0-1.9-.37,3.31,3.31,0,0,0-2,.58,1.93,1.93,0,0,0-.77,1.62,1.88,1.88,0,0,0,.22.93,2.21,2.21,0,0,0,.59.67,5,5,0,0,0,.8.51c.29.14.59.28.9.4l2.14.92a9.34,9.34,0,0,1,1.22.63,4.74,4.74,0,0,1,1,.83,3.69,3.69,0,0,1,.65,1.11,4.06,4.06,0,0,1,.24,1.46,3.94,3.94,0,0,1-1.38,3,4.83,4.83,0,0,1-1.6.92,6.24,6.24,0,0,1-2.14.34,7.24,7.24,0,0,1-5.29-2.23Z" style="fill:#fff"/><path d="M423.59,360.59h-1.66v-1.42l1.75-.12.23-3.13h1.59v3.13h3v1.54h-3v6.21a2.78,2.78,0,0,0,.38,1.6,1.49,1.49,0,0,0,1.34.57,2.64,2.64,0,0,0,.65-.1,6.48,6.48,0,0,0,.62-.2l.37,1.42a8.46,8.46,0,0,1-1,.29,5,5,0,0,1-1.07.13,3.73,3.73,0,0,1-1.51-.28,2.53,2.53,0,0,1-1-.76,3,3,0,0,1-.54-1.17,6.57,6.57,0,0,1-.16-1.52Z" style="fill:#fff"/><path d="M430.08,367.33a3.11,3.11,0,0,1,1.64-2.82,13.65,13.65,0,0,1,5.23-1.36,5.1,5.1,0,0,0-.1-1,2.48,2.48,0,0,0-.37-.9,2,2,0,0,0-.7-.63,2.34,2.34,0,0,0-1.13-.24,4.44,4.44,0,0,0-1.83.37,8.22,8.22,0,0,0-1.5.83l-.76-1.31a11.64,11.64,0,0,1,1.91-1,6.26,6.26,0,0,1,2.48-.47,3.42,3.42,0,0,1,3,1.25,5.57,5.57,0,0,1,.92,3.35v6.85h-1.56l-.17-1.33h0a10,10,0,0,1-1.74,1.14,4.35,4.35,0,0,1-2,.47,3.42,3.42,0,0,1-2.36-.83A3,3,0,0,1,430.08,367.33Zm1.86-.14a1.6,1.6,0,0,0,.56,1.38,2.27,2.27,0,0,0,1.39.42,3.27,3.27,0,0,0,1.53-.38,7,7,0,0,0,1.53-1.12v-3.1a19.2,19.2,0,0,0-2.37.44,5.92,5.92,0,0,0-1.55.59,2.24,2.24,0,0,0-.84.8A1.92,1.92,0,0,0,431.94,367.19Z" style="fill:#fff"/><path d="M442.73,360.59h-1.66v-1.42l1.75-.12.23-3.13h1.58v3.13h3v1.54h-3v6.21a2.87,2.87,0,0,0,.38,1.6,1.52,1.52,0,0,0,1.35.57,2.56,2.56,0,0,0,.64-.1,5.68,5.68,0,0,0,.62-.2l.37,1.42a7.94,7.94,0,0,1-1,.29,4.89,4.89,0,0,1-1.07.13,3.68,3.68,0,0,1-1.5-.28,2.53,2.53,0,0,1-1-.76,2.75,2.75,0,0,1-.54-1.17,6.57,6.57,0,0,1-.16-1.52Z" style="fill:#fff"/><path d="M449.12,364.66a6.84,6.84,0,0,1,.42-2.47,5.88,5.88,0,0,1,1.13-1.85,4.86,4.86,0,0,1,1.6-1.16,4.48,4.48,0,0,1,1.86-.4,4.77,4.77,0,0,1,1.9.36,3.7,3.7,0,0,1,1.4,1.06,4.77,4.77,0,0,1,.87,1.66,7.23,7.23,0,0,1,.3,2.16,7.39,7.39,0,0,1-.07,1H451a4.43,4.43,0,0,0,1.12,2.87,3.42,3.42,0,0,0,2.61,1.06,4.38,4.38,0,0,0,1.48-.24,6,6,0,0,0,1.3-.64l.67,1.25a10.29,10.29,0,0,1-1.63.8,5.68,5.68,0,0,1-2,.35,5.51,5.51,0,0,1-2.11-.41,4.92,4.92,0,0,1-1.7-1.15,5.27,5.27,0,0,1-1.14-1.83A6.93,6.93,0,0,1,449.12,364.66Zm7.82-.85a4.1,4.1,0,0,0-.73-2.63,2.44,2.44,0,0,0-2-.91,2.78,2.78,0,0,0-1.14.24,3.12,3.12,0,0,0-1,.69,3.67,3.67,0,0,0-.72,1.11,5.07,5.07,0,0,0-.38,1.5Z" style="fill:#fff"/><path d="M466.19,355.14h2.25l2.92,8.1,1.1,3.08h.1l1.05-3.08,2.9-8.1h2.26v15.09H477v-8.3c0-.68,0-1.42.08-2.23s.11-1.56.17-2.23h-.09l-1.22,3.35-2.9,7.89h-1.08L469,360.82l-1.19-3.35h-.1c.05.67.1,1.41.16,2.23s.1,1.55.1,2.23v8.3h-1.77Z" style="fill:#fff"/><path d="M482.17,367.33a3.13,3.13,0,0,1,1.64-2.82,13.71,13.71,0,0,1,5.24-1.36,5.1,5.1,0,0,0-.11-1,2.47,2.47,0,0,0-.36-.9,2,2,0,0,0-.71-.63,2.3,2.3,0,0,0-1.12-.24,4.44,4.44,0,0,0-1.83.37,8.67,8.67,0,0,0-1.51.83l-.76-1.31a11.64,11.64,0,0,1,1.91-1,6.28,6.28,0,0,1,2.49-.47,3.41,3.41,0,0,1,3,1.25,5.5,5.5,0,0,1,.92,3.35v6.85h-1.56l-.16-1.33h0a10,10,0,0,1-1.73,1.14,4.39,4.39,0,0,1-2,.47,3.43,3.43,0,0,1-2.36-.83A3,3,0,0,1,482.17,367.33Zm1.86-.14a1.58,1.58,0,0,0,.57,1.38A2.25,2.25,0,0,0,486,369a3.3,3.3,0,0,0,1.53-.38,7.56,7.56,0,0,0,1.53-1.12v-3.1a18.51,18.51,0,0,0-2.37.44,5.78,5.78,0,0,0-1.55.59,2.17,2.17,0,0,0-.84.8A1.93,1.93,0,0,0,484,367.19Z" style="fill:#fff"/><path d="M494.5,359.05h1.56l.16,1.61h.07a9.46,9.46,0,0,1,1.69-1.34,3.88,3.88,0,0,1,2.06-.54,3,3,0,0,1,2.59,1.1,5.51,5.51,0,0,1,.82,3.27v7.08h-1.89V363.4a4,4,0,0,0-.51-2.29,1.83,1.83,0,0,0-1.61-.7,2.78,2.78,0,0,0-1.54.44,10.63,10.63,0,0,0-1.52,1.28v8.1H494.5Z" style="fill:#fff"/><path d="M506.53,367.33a3.13,3.13,0,0,1,1.64-2.82,13.65,13.65,0,0,1,5.23-1.36,5.1,5.1,0,0,0-.1-1,2.48,2.48,0,0,0-.37-.9,1.94,1.94,0,0,0-.7-.63,2.34,2.34,0,0,0-1.13-.24,4.36,4.36,0,0,0-1.82.37,8.32,8.32,0,0,0-1.51.83l-.76-1.31a11.64,11.64,0,0,1,1.91-1,6.26,6.26,0,0,1,2.48-.47,3.42,3.42,0,0,1,3,1.25,5.57,5.57,0,0,1,.92,3.35v6.85h-1.56l-.16-1.33h-.05a10,10,0,0,1-1.74,1.14,4.32,4.32,0,0,1-2,.47,3.43,3.43,0,0,1-2.36-.83A3,3,0,0,1,506.53,367.33Zm1.86-.14a1.6,1.6,0,0,0,.56,1.38,2.27,2.27,0,0,0,1.39.42,3.34,3.34,0,0,0,1.54-.38,7.26,7.26,0,0,0,1.52-1.12v-3.1a18.66,18.66,0,0,0-2.36.44,5.86,5.86,0,0,0-1.56.59,2.24,2.24,0,0,0-.84.8A1.92,1.92,0,0,0,508.39,367.19Z" style="fill:#fff"/><path d="M518,372.37a2.39,2.39,0,0,1,.44-1.36,4.47,4.47,0,0,1,1.2-1.17v-.09a2.23,2.23,0,0,1-.7-.7,2,2,0,0,1-.29-1.12,2,2,0,0,1,.39-1.24,3.62,3.62,0,0,1,.83-.83v-.09a4.66,4.66,0,0,1-1-1.23,3.49,3.49,0,0,1-.45-1.78,4,4,0,0,1,.33-1.66,3.7,3.7,0,0,1,.91-1.25,4,4,0,0,1,1.35-.8,4.83,4.83,0,0,1,1.62-.27,4,4,0,0,1,.86.08,5.33,5.33,0,0,1,.72.19h3.89v1.45h-2.3a3.29,3.29,0,0,1,.66,1,3.33,3.33,0,0,1,.26,1.31,4,4,0,0,1-.32,1.62,3.65,3.65,0,0,1-.87,1.22,4,4,0,0,1-1.3.77,4.49,4.49,0,0,1-1.6.28,3.61,3.61,0,0,1-.85-.11,3.68,3.68,0,0,1-.83-.28,2.7,2.7,0,0,0-.51.56,1.36,1.36,0,0,0-.2.77,1.09,1.09,0,0,0,.41.88,2.54,2.54,0,0,0,1.56.34h2.17a5.47,5.47,0,0,1,2.93.63,2.26,2.26,0,0,1,1,2,3,3,0,0,1-.4,1.48,3.72,3.72,0,0,1-1.12,1.23,5.82,5.82,0,0,1-1.79.84,8.11,8.11,0,0,1-2.35.31,8.52,8.52,0,0,1-1.89-.19,4.6,4.6,0,0,1-1.46-.59,2.81,2.81,0,0,1-.94-.94A2.48,2.48,0,0,1,518,372.37Zm1.66-.25a1.61,1.61,0,0,0,.86,1.42,4.59,4.59,0,0,0,2.38.53,5.06,5.06,0,0,0,1.46-.19,4,4,0,0,0,1.12-.51,2.43,2.43,0,0,0,.71-.72,1.63,1.63,0,0,0,.26-.86,1.12,1.12,0,0,0-.58-1.08,3.71,3.71,0,0,0-1.68-.3h-1.93l-.7,0a3.12,3.12,0,0,1-.75-.15,3,3,0,0,0-.87.92A1.87,1.87,0,0,0,519.66,372.12Zm3-6.7a2.34,2.34,0,0,0,.91-.18,2.28,2.28,0,0,0,.75-.53,2.25,2.25,0,0,0,.52-.84,3.23,3.23,0,0,0,.19-1.11,2.6,2.6,0,0,0-.69-1.93,2.44,2.44,0,0,0-3.36,0,2.6,2.6,0,0,0-.69,1.93,3.23,3.23,0,0,0,.18,1.11,2.39,2.39,0,0,0,.52.84,2.22,2.22,0,0,0,.76.53A2.27,2.27,0,0,0,522.63,365.42Z" style="fill:#fff"/><path d="M529.3,364.66a6.84,6.84,0,0,1,.42-2.47,5.88,5.88,0,0,1,1.13-1.85,4.86,4.86,0,0,1,1.6-1.16,4.48,4.48,0,0,1,1.86-.4,4.77,4.77,0,0,1,1.9.36,3.7,3.7,0,0,1,1.4,1.06,4.75,4.75,0,0,1,.86,1.66,7.23,7.23,0,0,1,.3,2.16,6.14,6.14,0,0,1-.07,1h-7.54a4.43,4.43,0,0,0,1.12,2.87,3.39,3.39,0,0,0,2.61,1.06,4.42,4.42,0,0,0,1.48-.24,6.27,6.27,0,0,0,1.3-.64l.67,1.25a10.41,10.41,0,0,1-1.64.8,5.63,5.63,0,0,1-2,.35,5.44,5.44,0,0,1-2.11-.41,4.83,4.83,0,0,1-1.7-1.15,5.27,5.27,0,0,1-1.14-1.83A6.72,6.72,0,0,1,529.3,364.66Zm7.82-.85a4.1,4.1,0,0,0-.73-2.63,2.44,2.44,0,0,0-2-.91,2.78,2.78,0,0,0-1.14.24,3.12,3.12,0,0,0-1,.69,3.67,3.67,0,0,0-.72,1.11,4.78,4.78,0,0,0-.38,1.5Z" style="fill:#fff"/><path d="M541.53,359.05h1.57l.16,1.61h.07a8,8,0,0,1,1.59-1.34,3.48,3.48,0,0,1,1.88-.54,3.16,3.16,0,0,1,2,.56,3.3,3.3,0,0,1,1.07,1.58,9.18,9.18,0,0,1,1.76-1.56,3.41,3.41,0,0,1,1.92-.58,3,3,0,0,1,2.57,1.1,5.36,5.36,0,0,1,.84,3.27v7.08h-1.89V363.4a4,4,0,0,0-.51-2.29,1.78,1.78,0,0,0-1.56-.7,4.16,4.16,0,0,0-2.81,1.72v8.1h-1.88V363.4a4,4,0,0,0-.51-2.29,1.82,1.82,0,0,0-1.59-.7,4.14,4.14,0,0,0-2.8,1.72v8.1h-1.89Z" style="fill:#fff"/><path d="M559.77,364.66a6.63,6.63,0,0,1,.43-2.47,5.86,5.86,0,0,1,1.12-1.85,4.86,4.86,0,0,1,1.6-1.16,4.49,4.49,0,0,1,1.87-.4,4.75,4.75,0,0,1,1.89.36,3.81,3.81,0,0,1,1.41,1.06,4.93,4.93,0,0,1,.86,1.66,7.23,7.23,0,0,1,.3,2.16,7.39,7.39,0,0,1-.07,1h-7.55a4.43,4.43,0,0,0,1.12,2.87,3.42,3.42,0,0,0,2.61,1.06,4.38,4.38,0,0,0,1.48-.24,5.82,5.82,0,0,0,1.3-.64l.67,1.25a9.89,9.89,0,0,1-1.63.8,5.68,5.68,0,0,1-2,.35,5.42,5.42,0,0,1-2.1-.41,4.87,4.87,0,0,1-1.71-1.15,5.11,5.11,0,0,1-1.13-1.83A6.71,6.71,0,0,1,559.77,364.66Zm7.82-.85a4.16,4.16,0,0,0-.72-2.63,2.45,2.45,0,0,0-2-.91,2.78,2.78,0,0,0-1.14.24,3.08,3.08,0,0,0-1,.69,3.51,3.51,0,0,0-.73,1.11,5.07,5.07,0,0,0-.38,1.5Z" style="fill:#fff"/><path d="M572,359.05h1.56l.16,1.61h.07a9.46,9.46,0,0,1,1.69-1.34,3.88,3.88,0,0,1,2.06-.54,3,3,0,0,1,2.59,1.1,5.51,5.51,0,0,1,.81,3.27v7.08h-1.88V363.4a4,4,0,0,0-.51-2.29,1.84,1.84,0,0,0-1.61-.7,2.78,2.78,0,0,0-1.54.44,10.63,10.63,0,0,0-1.52,1.28v8.1H572Z" style="fill:#fff"/><path d="M584.91,360.59h-1.66v-1.42l1.75-.12.23-3.13h1.59v3.13h3v1.54h-3v6.21a2.87,2.87,0,0,0,.38,1.6,1.49,1.49,0,0,0,1.34.57,2.64,2.64,0,0,0,.65-.1,6.48,6.48,0,0,0,.62-.2l.37,1.42a8.46,8.46,0,0,1-1,.29,5,5,0,0,1-1.07.13,3.73,3.73,0,0,1-1.51-.28,2.6,2.6,0,0,1-1-.76,3,3,0,0,1-.54-1.17,6.57,6.57,0,0,1-.16-1.52Z" style="fill:#fff"/><path d="M602,355.4a3,3,0,0,0-1.26-.28q-1.56,0-1.56,2.16v1.77h2.36v1.54h-2.36v9.64h-1.89v-9.64h-1.52v-1.42l1.52-.12v-1.77a4.2,4.2,0,0,1,.79-2.71,3,3,0,0,1,2.48-1,4.65,4.65,0,0,1,1,.1,5.1,5.1,0,0,1,.86.27Z" style="fill:#fff"/><path d="M602.67,364.66a6.92,6.92,0,0,1,.42-2.49,5.46,5.46,0,0,1,1.14-1.85,4.65,4.65,0,0,1,1.64-1.15,5.17,5.17,0,0,1,3.94,0,4.65,4.65,0,0,1,1.64,1.15,5.46,5.46,0,0,1,1.14,1.85,7.4,7.4,0,0,1,0,5,5.41,5.41,0,0,1-1.14,1.84,4.9,4.9,0,0,1-1.64,1.14,5.17,5.17,0,0,1-3.94,0,4.9,4.9,0,0,1-1.64-1.14,5.41,5.41,0,0,1-1.14-1.84A6.9,6.9,0,0,1,602.67,364.66Zm2,0a6.29,6.29,0,0,0,.23,1.75,4.05,4.05,0,0,0,.66,1.35,3,3,0,0,0,1,.87,2.78,2.78,0,0,0,1.31.31,2.75,2.75,0,0,0,1.31-.31,3,3,0,0,0,1-.87,4.05,4.05,0,0,0,.66-1.35,6.77,6.77,0,0,0,0-3.5,4.06,4.06,0,0,0-.66-1.37,2.89,2.89,0,0,0-1-.89,2.75,2.75,0,0,0-1.31-.31,2.78,2.78,0,0,0-1.31.31,2.89,2.89,0,0,0-1,.89,4.06,4.06,0,0,0-.66,1.37A6.34,6.34,0,0,0,604.62,364.66Z" style="fill:#fff"/><path d="M616,359.05h1.56l.16,2h.07a5.21,5.21,0,0,1,1.39-1.68,3,3,0,0,1,3-.39l-.37,1.65-.5-.14a3.15,3.15,0,0,0-.58,0,2.51,2.51,0,0,0-1.48.57,4.62,4.62,0,0,0-1.34,2v7.18H616Z" style="fill:#fff"/><path d="M628.82,366.94a6.33,6.33,0,0,0,1.89,1.37,5.2,5.2,0,0,0,2.27.52,3.56,3.56,0,0,0,2.32-.68,2.38,2.38,0,0,0,.63-2.76,2.1,2.1,0,0,0-.52-.69,3.94,3.94,0,0,0-.8-.52l-1-.48-2.16-.94a11.2,11.2,0,0,1-1.08-.56,4.16,4.16,0,0,1-1-.78,3.61,3.61,0,0,1-.71-1.09,3.52,3.52,0,0,1-.28-1.46,3.57,3.57,0,0,1,.36-1.59,4.08,4.08,0,0,1,1-1.28,4.59,4.59,0,0,1,1.49-.83,5.78,5.78,0,0,1,1.9-.3,6.16,6.16,0,0,1,2.51.51,6.4,6.4,0,0,1,2,1.35l-1,1.24a5.64,5.64,0,0,0-1.53-1.05,4.6,4.6,0,0,0-1.9-.37,3.31,3.31,0,0,0-2,.58,1.93,1.93,0,0,0-.77,1.62,1.88,1.88,0,0,0,.22.93,2.21,2.21,0,0,0,.59.67,5,5,0,0,0,.8.51c.3.14.59.28.9.4l2.14.92a9.34,9.34,0,0,1,1.22.63,4.74,4.74,0,0,1,1,.83,3.69,3.69,0,0,1,.65,1.11,4.06,4.06,0,0,1,.24,1.46,3.94,3.94,0,0,1-.35,1.67,4,4,0,0,1-1,1.37,4.93,4.93,0,0,1-1.62.92,6.14,6.14,0,0,1-2.13.34,7.24,7.24,0,0,1-5.29-2.23Z" style="fill:#fff"/><path d="M640,364.66a6.63,6.63,0,0,1,.43-2.47,5.69,5.69,0,0,1,1.12-1.85,4.86,4.86,0,0,1,1.6-1.16,4.48,4.48,0,0,1,1.86-.4,4.77,4.77,0,0,1,1.9.36,3.7,3.7,0,0,1,1.4,1.06,4.77,4.77,0,0,1,.87,1.66,7.23,7.23,0,0,1,.3,2.16,7.39,7.39,0,0,1-.07,1H641.9a4.43,4.43,0,0,0,1.12,2.87,3.42,3.42,0,0,0,2.61,1.06,4.38,4.38,0,0,0,1.48-.24,5.82,5.82,0,0,0,1.3-.64l.67,1.25a10.29,10.29,0,0,1-1.63.8,5.68,5.68,0,0,1-2.05.35,5.51,5.51,0,0,1-2.11-.41,4.92,4.92,0,0,1-1.7-1.15,5.27,5.27,0,0,1-1.14-1.83A6.93,6.93,0,0,1,640,364.66Zm7.82-.85a4.16,4.16,0,0,0-.72-2.63,2.47,2.47,0,0,0-2-.91,2.78,2.78,0,0,0-1.14.24,3.24,3.24,0,0,0-1,.69,3.67,3.67,0,0,0-.72,1.11,5.07,5.07,0,0,0-.38,1.5Z" style="fill:#fff"/><path d="M652.28,359.05h1.56l.16,2h.07a5.09,5.09,0,0,1,1.39-1.68,3,3,0,0,1,3-.39l-.37,1.65-.5-.14a3.22,3.22,0,0,0-.58,0,2.51,2.51,0,0,0-1.48.57,4.54,4.54,0,0,0-1.35,2v7.18h-1.88Z" style="fill:#fff"/><path d="M659.08,359.05h2l2.11,6.35c.17.55.35,1.1.52,1.66s.35,1.09.52,1.63h.09l.51-1.63c.17-.56.33-1.11.5-1.66l2.12-6.35h1.86l-3.95,11.18h-2.21Z" style="fill:#fff"/><path d="M670.51,364.66a6.84,6.84,0,0,1,.43-2.47,5.71,5.71,0,0,1,1.13-1.85,4.76,4.76,0,0,1,1.6-1.16,4.41,4.41,0,0,1,1.86-.4,4.8,4.8,0,0,1,1.9.36,3.77,3.77,0,0,1,1.4,1.06,4.93,4.93,0,0,1,.86,1.66A7.23,7.23,0,0,1,680,364a6.14,6.14,0,0,1-.07,1h-7.54a4.42,4.42,0,0,0,1.11,2.87A3.42,3.42,0,0,0,676.1,369a4.48,4.48,0,0,0,1.49-.24,6.27,6.27,0,0,0,1.3-.64l.66,1.25a9.89,9.89,0,0,1-1.63.8,5.68,5.68,0,0,1-2,.35,5.42,5.42,0,0,1-2.1-.41,4.83,4.83,0,0,1-1.7-1.15,5,5,0,0,1-1.14-1.83A6.71,6.71,0,0,1,670.51,364.66Zm7.82-.85a4.16,4.16,0,0,0-.72-2.63,2.44,2.44,0,0,0-2-.91,2.73,2.73,0,0,0-1.13.24,3.12,3.12,0,0,0-1,.69,3.69,3.69,0,0,0-.73,1.11,5.4,5.4,0,0,0-.38,1.5Z" style="fill:#fff"/><path d="M682.75,359.05h1.56l.17,2h.06a5.11,5.11,0,0,1,1.4-1.68,3,3,0,0,1,3-.39l-.36,1.65-.51-.14a3.09,3.09,0,0,0-.58,0,2.54,2.54,0,0,0-1.48.57,4.62,4.62,0,0,0-1.34,2v7.18h-1.89Z" style="fill:#fff"/><path d="M690.73,353.85h1.89v14.26a1,1,0,0,0,.16.65.47.47,0,0,0,.37.18h.17a1,1,0,0,0,.24,0l.25,1.42a1.67,1.67,0,0,1-.43.14,3.82,3.82,0,0,1-.65.05,1.77,1.77,0,0,1-1.54-.65,3.2,3.2,0,0,1-.46-1.88Z" style="fill:#fff"/><path d="M695.77,364.66a6.84,6.84,0,0,1,.42-2.47,5.88,5.88,0,0,1,1.13-1.85,4.86,4.86,0,0,1,1.6-1.16,4.48,4.48,0,0,1,1.86-.4,4.77,4.77,0,0,1,1.9.36,3.7,3.7,0,0,1,1.4,1.06,4.75,4.75,0,0,1,.86,1.66,7.23,7.23,0,0,1,.3,2.16,6.14,6.14,0,0,1-.07,1h-7.54a4.43,4.43,0,0,0,1.12,2.87,3.39,3.39,0,0,0,2.61,1.06,4.42,4.42,0,0,0,1.48-.24,6.27,6.27,0,0,0,1.3-.64l.67,1.25a10,10,0,0,1-1.64.8,5.63,5.63,0,0,1-2,.35,5.47,5.47,0,0,1-2.11-.41,4.83,4.83,0,0,1-1.7-1.15,5.27,5.27,0,0,1-1.14-1.83A6.93,6.93,0,0,1,695.77,364.66Zm7.82-.85a4.1,4.1,0,0,0-.73-2.63,2.44,2.44,0,0,0-2-.91,2.78,2.78,0,0,0-1.14.24,3.12,3.12,0,0,0-1,.69,3.67,3.67,0,0,0-.72,1.11,4.78,4.78,0,0,0-.38,1.5Z" style="fill:#fff"/><path d="M707.7,367.7a7.86,7.86,0,0,0,1.51,1A4.16,4.16,0,0,0,711,369a2.37,2.37,0,0,0,1.66-.5,1.61,1.61,0,0,0,.55-1.24,1.29,1.29,0,0,0-.23-.76,2.14,2.14,0,0,0-.59-.57,3.84,3.84,0,0,0-.81-.42l-.92-.37c-.4-.14-.8-.29-1.2-.47a4.77,4.77,0,0,1-1.07-.65,3.24,3.24,0,0,1-.77-.88,2.35,2.35,0,0,1-.3-1.22,3,3,0,0,1,.27-1.25,2.9,2.9,0,0,1,.76-1,3.65,3.65,0,0,1,1.2-.66,5.49,5.49,0,0,1,3.56.12,6.3,6.3,0,0,1,1.53.9l-.9,1.2a6.16,6.16,0,0,0-1.2-.72,3.32,3.32,0,0,0-1.35-.27,2.17,2.17,0,0,0-1.56.48,1.52,1.52,0,0,0-.49,1.13,1.12,1.12,0,0,0,.21.68,1.9,1.9,0,0,0,.55.5,3.88,3.88,0,0,0,.79.39l.93.36c.4.15.81.31,1.21.48a4.35,4.35,0,0,1,1.09.64,3,3,0,0,1,.8.93,2.64,2.64,0,0,1,.31,1.33,3.11,3.11,0,0,1-.27,1.29,3,3,0,0,1-.78,1.06,3.64,3.64,0,0,1-1.29.72,5.29,5.29,0,0,1-1.76.27,6,6,0,0,1-2.27-.44,7.28,7.28,0,0,1-1.89-1.1Z" style="fill:#fff"/><path d="M717.34,367.7a7.56,7.56,0,0,0,1.51,1,4.16,4.16,0,0,0,1.78.36,2.37,2.37,0,0,0,1.66-.5,1.65,1.65,0,0,0,.55-1.24,1.29,1.29,0,0,0-.23-.76A2.29,2.29,0,0,0,722,366a4.4,4.4,0,0,0-.81-.42l-.92-.37c-.4-.14-.8-.29-1.2-.47a4.56,4.56,0,0,1-1.07-.65,3.24,3.24,0,0,1-.77-.88A2.35,2.35,0,0,1,717,362a3.11,3.11,0,0,1,.26-1.25,3,3,0,0,1,.76-1,3.7,3.7,0,0,1,1.21-.66,5.46,5.46,0,0,1,3.55.12,6.3,6.3,0,0,1,1.53.9l-.89,1.2a6.81,6.81,0,0,0-1.2-.72,3.37,3.37,0,0,0-1.36-.27,2.16,2.16,0,0,0-1.55.48,1.52,1.52,0,0,0-.49,1.13,1.19,1.19,0,0,0,.2.68,2,2,0,0,0,.56.5,3.88,3.88,0,0,0,.79.39l.93.36,1.21.48a4.53,4.53,0,0,1,1.09.64,3,3,0,0,1,.79.93,2.64,2.64,0,0,1,.32,1.33,3.11,3.11,0,0,1-.27,1.29,3.2,3.2,0,0,1-.78,1.06,3.83,3.83,0,0,1-1.29.72,5.29,5.29,0,0,1-1.76.27,6,6,0,0,1-2.28-.44,7.05,7.05,0,0,1-1.88-1.1Z" style="fill:#fff"/></g></svg>