<svg id="Layer_1" data-name="Layer 1" xmlns="http://www.w3.org/2000/svg" viewBox="0 0 34 34"><title>github-black</title><path d="M17,1.11a16.29,16.29,0,0,0-5.15,31.75c.82.15,1.11-.35,1.11-.79s0-1.41,0-2.77c-4.53,1-5.49-2.18-5.49-2.18a4.3,4.3,0,0,0-1.81-2.38c-1.47-1,.12-1,.12-1a3.4,3.4,0,0,1,2.49,1.68A3.47,3.47,0,0,0,13,26.78a3.49,3.49,0,0,1,1-2.18c-3.62-.41-7.42-1.81-7.42-8a6.3,6.3,0,0,1,1.67-4.37,5.93,5.93,0,0,1,.16-4.31s1.37-.44,4.48,1.67a15.41,15.41,0,0,1,8.16,0c3.11-2.11,4.47-1.67,4.47-1.67a5.9,5.9,0,0,1,.17,4.31,6.3,6.3,0,0,1,1.67,4.37c0,6.26-3.81,7.64-7.44,8a3.87,3.87,0,0,1,1.11,3c0,2.17,0,3.93,0,4.46s.29,1,1.12.79A16.3,16.3,0,0,0,17,1.11Z" fill="#181616" fill-rule="evenodd"/></svg>