<svg xmlns="http://www.w3.org/2000/svg" viewBox="0 0 60 60"><title>operations</title><g id="Layer_2" data-name="Layer 2"><circle cx="21" cy="33" r="9" fill="none" stroke="#fff" stroke-linejoin="round" stroke-width="2"/><circle cx="21" cy="33" r="3" fill="none" stroke="#fff" stroke-linejoin="round" stroke-width="2"/><path d="M38.86,35.18a17,17,0,0,0,0-4.36L34,30.12a13,13,0,0,0-1.77-4.26l3-3.95a18,18,0,0,0-3.08-3.08l-4,3A13.28,13.28,0,0,0,23.88,20l-.7-4.87a17,17,0,0,0-4.36,0L18.12,20a13.28,13.28,0,0,0-4.26,1.78l-3.95-3a18,18,0,0,0-3.08,3.08l3,3.95A13,13,0,0,0,8,30.12l-4.88.7a17,17,0,0,0,0,4.36l4.88.7a13,13,0,0,0,1.77,4.26l-3,4a18,18,0,0,0,3.08,3.08l3.95-3A13.28,13.28,0,0,0,18.12,46l.7,4.87a17,17,0,0,0,4.36,0l.7-4.87a13.28,13.28,0,0,0,4.26-1.78l4,3a18,18,0,0,0,3.08-3.08l-3-4A13,13,0,0,0,34,35.88Z" fill="none" stroke="#fff" stroke-linejoin="round" stroke-width="2"/><path d="M54,20a6.57,6.57,0,0,0-.23-1.73L57,16a8.81,8.81,0,0,0-.63-1.36,8.11,8.11,0,0,0-.86-1.22L51.89,15a7,7,0,0,0-3-1.72l-.41-4.15a9,9,0,0,0-3,0l-.41,4.15a7,7,0,0,0-3,1.72l-3.62-1.63a8.9,8.9,0,0,0-.86,1.22A8.81,8.81,0,0,0,37,16l3.23,2.32a6.62,6.62,0,0,0,0,3.46L37,24.05a8.81,8.81,0,0,0,.63,1.36,8.9,8.9,0,0,0,.86,1.22L42.11,25a7,7,0,0,0,3,1.72l.41,4.15a9,9,0,0,0,3,0l.41-4.15a7,7,0,0,0,3-1.72l3.62,1.63a8.11,8.11,0,0,0,.86-1.22A8.81,8.81,0,0,0,57,24.05l-3.23-2.32A6.57,6.57,0,0,0,54,20Z" fill="none" stroke="#fff" stroke-linejoin="round" stroke-width="2"/><circle cx="47" cy="20" r="2" fill="none" stroke="#fff" stroke-linejoin="round" stroke-width="2"/></g></svg>