<svg xmlns="http://www.w3.org/2000/svg" viewBox="0 0 60 60"><title>state</title><g id="Layer_2" data-name="Layer 2"><path d="M51,12.92a4,4,0,0,0-2.14-3.54C45,7.35,38,6,30,6S15,7.35,11.14,9.38A4,4,0,0,0,9,12.92V47.08a4,4,0,0,0,2.14,3.54C15,52.65,22,54,30,54s15-1.35,18.86-3.38A4,4,0,0,0,51,47.08Z" fill="none" stroke="#fff" stroke-linejoin="round" stroke-width="2"/><path d="M45,12a58.5,58.5,0,0,1-15,2,58.5,58.5,0,0,1-15-2" fill="none" stroke="#fff" stroke-linecap="round" stroke-linejoin="round" stroke-width="2"/></g></svg>