<svg xmlns="http://www.w3.org/2000/svg" viewBox="0 0 100 100"><title>cloudstate-icon-black</title><g id="Layer_1" data-name="Layer 1"><g id="icon"><path d="M40.21,71.51a6,6,0,0,1,1.53-4h0a4,4,0,0,1-1.53-3.14V57.51a6,6,0,0,1,1.53-4h0a4,4,0,0,1-1.53-3.14V42.23a4,4,0,0,1,1.11-2.76,15.76,15.76,0,0,0-9-2.87,15.54,15.54,0,0,0-14.36,9.29l-.25.56-.62,0A13.92,13.92,0,0,0,17.7,74.3H40.21Z"/><path d="M86.34,35.61v-.16A20.75,20.75,0,0,0,45.78,29.3,13.06,13.06,0,0,0,38.43,27a13.35,13.35,0,0,0-12.51,8.75,17.64,17.64,0,0,1,17.19,2.52c4-1.82,10.6-3,18.1-3,8,0,15,1.36,18.86,3.38a4,4,0,0,1,2.14,3.55v8.15a4,4,0,0,1-1.52,3.14,6,6,0,0,1,1.52,4v6.87A4,4,0,0,1,81.86,66a15.81,15.81,0,0,0,4.48-30.39Z"/><path d="M41.74,67.52a6,6,0,0,0-1.53,4v6.87a4,4,0,0,0,2.15,3.55c3.86,2,10.86,3.37,18.85,3.37s15-1.35,18.86-3.37a4,4,0,0,0,2.14-3.55V71.51a6,6,0,0,0-1.52-4" fill="none" stroke="#000" stroke-linejoin="round" stroke-width="2"/><path d="M41.74,53.52a6,6,0,0,0-1.53,4v6.87a4,4,0,0,0,2.15,3.55c3.86,2,10.86,3.37,18.85,3.37s15-1.35,18.86-3.37a4,4,0,0,0,2.14-3.55V57.51a6,6,0,0,0-1.52-4" fill="none" stroke="#000" stroke-linejoin="round" stroke-width="2"/><path d="M82.21,42.23a4,4,0,0,0-2.14-3.55c-3.86-2-10.86-3.38-18.86-3.38s-15,1.36-18.85,3.38a4,4,0,0,0-2.15,3.55v8.15a4,4,0,0,0,2.15,3.55c3.86,2,10.86,3.37,18.85,3.37s15-1.35,18.86-3.37a4,4,0,0,0,2.14-3.55Z" fill="none" stroke="#000" stroke-linejoin="round" stroke-width="2"/><path d="M76.21,41.3a58.4,58.4,0,0,1-15,2,58.5,58.5,0,0,1-15-2" fill="none" stroke="#000" stroke-linecap="round" stroke-linejoin="round" stroke-width="2"/></g></g></svg>