<svg data-name="Layer 1" xmlns="http://www.w3.org/2000/svg" viewBox="0 0 100 100"><path d="M48.85 33.57a16.12 16.12 0 00-15.26 15c-.34 5.26 2.17 9.51 4.75 13.39A16.28 16.28 0 0140.66 68a4.31 4.31 0 003.23 1.46h11.24A4.15 4.15 0 0058.3 68a16.37 16.37 0 012.36-6.1c2-3 4.78-7.21 4.78-12.34a16 16 0 00-16.59-15.99zm9 26.49a20.35 20.35 0 00-2.61 6H43.73a20 20 0 00-2.57-6c-2.22-3.35-4.22-6.68-4.22-10.57a12.56 12.56 0 1125.12.1c0 4.11-2.34 7.64-4.22 10.47z" fill="#fff"/><path d="M42.65 68.88l.9 6a2.56 2.56 0 001.62 2l1.24.46 1.37 2.39h3.52l1.31-2.39 1.22-.46a2.53 2.53 0 001.61-2l.91-6zM17.997 50.841l.024-2.71 11.32.101-.025 2.71zm3.646 12.921l9.35-5.344 1.345 2.353-9.35 5.344zM48.15 18h2.71v10.23h-2.71zm-15.865 4.818l2.358-1.335 5.328 9.417-2.358 1.335zM21.402 34.841l1.375-2.335 9.3 5.471-1.375 2.336zM69.658 48.23l11.32-.099.023 2.71-11.32.1zM66.67 60.778l1.345-2.353 9.35 5.346-1.345 2.352zm-7.643-29.889l5.326-9.419 2.36 1.335-5.327 9.418zm7.889 7.081l9.302-5.468 1.373 2.336-9.302 5.469z" fill="#fff"/></svg>