<svg data-name="Layer 1" xmlns="http://www.w3.org/2000/svg" viewBox="0 0 658 270"><path d="M349.64 105.46V93.34h19.92v58.44c0 7.13 1.66 9.79 6.14 9.79 1.17 0 2.66-.17 4.15-.33v16.1a28.71 28.71 0 01-9.79 1.33c-4.81 0-8.63-.83-11.62-2.66a15.41 15.41 0 01-6.81-10.12c-5.81 8.79-15.43 13.11-28.71 13.11A39.74 39.74 0 01293 166.38c-8-8.46-12-18.75-12-31.2s4-22.75 12-31.05a39.77 39.77 0 0129.88-12.61c13.48 0 23.61 5.97 26.76 13.94zm-6 48a24.42 24.42 0 007.47-18.26 24.39 24.39 0 00-7.47-18.26 24.79 24.79 0 00-18.1-7.31 24 24 0 00-17.76 7.31c-4.65 4.81-7 11-7 18.26s2.32 13.44 7 18.26a24 24 0 0017.76 7.3 24.82 24.82 0 0018.13-7.32zM388.48 177V61.31h19.76v67.56l30.87-35.53H462l-32.7 37.35L465.51 177h-22.58l-26.39-33.7-8.3 9.3V177zm82.34 0V61.31h19.75v67.56l30.88-35.53h22.91l-32.7 37.35L547.84 177h-22.57l-26.4-33.7-8.3 9.3V177z" fill="#0b5567"/><path d="M607.87 105.46V93.34h19.92v58.44c0 7.13 1.66 9.79 6.14 9.79 1.17 0 2.66-.17 4.15-.33v16.1a28.71 28.71 0 01-9.79 1.33c-4.81 0-8.63-.83-11.62-2.66a15.41 15.41 0 01-6.81-10.12c-5.81 8.79-15.43 13.11-28.71 13.11a39.74 39.74 0 01-29.88-12.62c-8-8.46-12-18.75-12-31.2s4-22.75 12-31.05a39.77 39.77 0 0129.88-12.61c13.44 0 23.57 5.97 26.72 13.94zm-6 48a24.42 24.42 0 007.47-18.26 24.39 24.39 0 00-7.47-18.26 24.79 24.79 0 00-18.1-7.31 24 24 0 00-17.77 7.29c-4.65 4.81-7 11-7 18.26s2.32 13.44 7 18.26a24 24 0 0017.76 7.3 24.82 24.82 0 0018.14-7.3zm-371.61 59.36c35.88 28.67 58.91-57 1.74-72.82-48-13.29-96.33 9.5-144.66 62.74 0 0 89.33-32.74 142.92 10.08z" fill="#0b5567"/><path d="M88.08 202c34.41-35.69 91.64-75.53 144.9-60.75a46.09 46.09 0 0126.92 19.35L209.48 58.78c-7.2-11.46-25.58-9.15-35.95-.26L40.29 170.07a27.4 27.4 0 00-1.56 40.15 27.4 27.4 0 0036.51 2L88.14 202z" fill="#15a9ce"/></svg>