<svg xmlns="http://www.w3.org/2000/svg" viewBox="0 0 752 192"><g data-name="Lagom Full Color"><path d="M291.58 31.79h19.83v87.92c0 8.1 2.65 11.57 9.92 11.57a21.37 21.37 0 005.95-.66v17.68a35.73 35.73 0 01-9.42 1c-17.52 0-26.28-8.92-26.28-26.94zm106.76 43.96V63.69h19.83v58.17c0 7.1 1.65 9.75 6.11 9.75 1.16 0 2.64-.17 4.13-.33v16a28.83 28.83 0 01-9.75 1.32c-4.79 0-8.59-.83-11.57-2.65a15.32 15.32 0 01-6.77-10.08C394.53 144.66 385 149 371.73 149A39.59 39.59 0 01342 136.4c-7.93-8.43-11.89-18.67-11.89-31.07s4-22.64 11.89-30.9a39.59 39.59 0 0129.75-12.56c13.37 0 23.45 5.95 26.59 13.88zm-5.95 47.76a24.32 24.32 0 007.43-18.18 24.34 24.34 0 00-7.43-18.18 24.71 24.71 0 00-18-7.27 23.94 23.94 0 00-17.68 7.27c-4.63 4.8-6.94 10.91-6.94 18.18s2.31 13.39 6.94 18.18a23.94 23.94 0 0017.68 7.27 24.71 24.71 0 0018-7.27zm103.28-59.82h19.83v69.4c0 20-2.81 32.23-14.05 41-7.93 6.11-17.68 9.25-29.41 9.25-15.54 0-28.92-4-40.32-12.06l9.58-14.71a50.5 50.5 0 0028.59 9.09q11.66 0 18.34-5c5.29-3.8 7.94-10.91 7.94-21.15v-4.13c-4 7.1-13.89 12.23-27.11 12.23a40.51 40.51 0 01-29.74-12.23c-7.93-8.1-11.9-18.35-11.9-30.41s4-22.31 12.06-30.57a39.23 39.23 0 0129.58-12.56c13.72 0 23.8 5.78 26.61 13.88zM489.72 123a24.16 24.16 0 007.44-18 23.84 23.84 0 00-7.44-17.85 24.69 24.69 0 00-18-7.27A23.92 23.92 0 00454 87.15a24.7 24.7 0 00-6.91 17.85 25 25 0 006.91 18 23.75 23.75 0 0017.68 7.11c7.13.01 13.25-2.3 18.04-7.11zm32.72-17.67a42.06 42.06 0 0113.22-31.4c8.76-8.43 19.5-12.72 32.22-12.72s23.47 4.29 32.23 12.72a42.06 42.06 0 0113.22 31.4 42 42 0 01-13.22 31.4c-8.76 8.43-19.5 12.72-32.23 12.72s-23.46-4.29-32.22-12.72a42 42 0 01-13.22-31.4zM586.23 124a25.68 25.68 0 007.43-18.68 25 25 0 00-7.43-18.51 26.13 26.13 0 00-36.85 0 25.58 25.58 0 00-7.27 18.51 26.25 26.25 0 007.27 18.68 26.56 26.56 0 0036.85 0zm34.37 23V63.69h19.67v11.9C643.74 67.49 652 62 662.58 62 674 62 681.91 66.83 686 76.58 690.84 66.83 699.76 62 712.81 62c18 0 28.43 12.72 28.43 33.38v26.27c0 6.45 1.15 8.76 5.62 8.76a15 15 0 002.81-.33v16.69a28.48 28.48 0 01-8.6 1c-13.05 0-19.5-7.27-19.5-21.81V98.23c0-11.41-5.28-18.51-14.54-18.51s-16 8.09-16 19.33V147h-19.69V98.23c0-11.41-5.46-18.51-14.88-18.51-9.25 0-16.19 8.09-16.19 19.33V147zM261 84l-70 34 70 34s-.22-67.73 0-68zm-140 68l70-34-70-34v68z" fill="#652b7c"/><path d="M191 118l70 34c-.27 0-41.76 25-60.63 36.24a17.63 17.63 0 01-18 0C163.47 177 121 152 121 152z" fill="#421540"/><path d="M200.23 47.65C219.09 58.88 261 84 261 84l-70 34-70-34c.27 0 42.31-25.12 61.18-36.36a17.67 17.67 0 0118.05.01z" fill="#bf97c6"/><path d="M145 20.58l-35 17 35 17s-.11-33.86 0-34zm-70 34l35-17-35-17v34z" fill="#652b7c"/><path d="M110 37.58l35 17c-.14 0-20.88 12.5-30.31 18.12a8.81 8.81 0 01-9 0C96.23 67.08 75 54.58 75 54.58z" fill="#421540"/><path d="M114.61 2.4C124 8 145 20.58 145 20.58l-35 17-35-17c.14 0 21.16-12.56 30.59-18.18a8.84 8.84 0 019.02 0z" fill="#bf97c6"/><path d="M101 91l-50 24.54 50 24.53s-.16-48.86 0-49.07zM1 140.07l50-24.53L1 91.02v49.05z" fill="#652b7c"/><path d="M51 115.54l50 24.53c-.19 0-29.83 18-43.3 26.14a12.48 12.48 0 01-12.89 0C31.34 158.1 1 140.07 1 140.07z" fill="#421540"/><path d="M57.59 64.79C71.06 72.9 101 91 101 91l-50 24.54L1 91c.19 0 30.22-18.12 43.7-26.23a12.48 12.48 0 0112.89.02z" fill="#bf97c6"/></g></svg>