<svg xmlns="http://www.w3.org/2000/svg" viewBox="0 0 372 80"><g fill="#fff"><path d="M1 59v17a3 3 0 003 3h84a3 3 0 003-3V59a167.38 167.38 0 01-45 6 167.38 167.38 0 01-45-6z"/><path d="M88 1H4a3 3 0 00-3 3v49c14.57 4.2 29.65 7 45 7s30.43-2.8 45-7V4a3 3 0 00-3-3z"/><path d="M107.2 20.08a2.14 2.14 0 114.27 0v32h13.6A2 2 0 01127 54a1.94 1.94 0 01-1.94 2h-15.75a2.15 2.15 0 01-2.11-2.16zm27.8-.76a2.47 2.47 0 014.91 0V20a2.47 2.47 0 01-4.91 0zm.38 10.59a2.08 2.08 0 114.16 0v24.24a2 2 0 01-2.06 2.11 2.08 2.08 0 01-2.1-2.11zm15.42 31.53a1.91 1.91 0 01-1.08-1.73 2 2 0 011.89-1.83 1.69 1.69 0 01.92.27 17.63 17.63 0 009.88 3c6.15 0 10.15-3.4 10.15-9.93v-3.3c-2.43 3.24-5.83 5.89-11 5.89a12.9 12.9 0 01-13.12-13.07v-.11a13.21 13.21 0 0124-7.56v-3.16a2.07 2.07 0 012.06-2.11 2.11 2.11 0 012.1 2.11v21.22c0 4.32-1.29 7.61-3.56 9.88-2.49 2.48-6.21 3.73-10.64 3.73a21.87 21.87 0 01-11.6-3.3zm21.87-20.73v-.11c0-5.72-5-9.45-10.26-9.45s-9.67 3.67-9.67 9.4v.1a9.45 9.45 0 009.67 9.51c5.29 0 10.26-3.84 10.26-9.45zm13.55-22.3a2.08 2.08 0 114.16 0v14.52a10.57 10.57 0 019.56-5.45c6.75 0 10.69 4.53 10.69 11.18v15.49a2.08 2.08 0 11-4.16 0V39.68c0-5.18-2.81-8.42-7.72-8.42s-8.37 3.51-8.37 8.75v14.14a2 2 0 01-2 2.11 2.08 2.08 0 01-2.11-2.11zm34.24 30.18V31.74h-2.27a1.89 1.89 0 01-1.84-1.83 1.86 1.86 0 011.84-1.84h2.27v-6.59a2.06 2.06 0 012-2.1 2.14 2.14 0 012.1 2.1v6.59h7.24a1.91 1.91 0 011.89 1.84 1.86 1.86 0 01-1.89 1.83h-7.24v16.31c0 3.4 1.89 4.64 4.7 4.64a12 12 0 002.54-.37 1.8 1.8 0 011.78 1.78 1.73 1.73 0 01-1.19 1.62 10.57 10.57 0 01-4.1.75c-4.43 0-7.83-2.21-7.83-7.88zm22.19-30.18a2.08 2.08 0 114.16 0v15.28c2.27-3.35 5.56-6.21 10.69-6.21 6.7 0 13.34 5.29 13.34 14.47v.11c0 9.12-6.59 14.52-13.34 14.52a12.6 12.6 0 01-10.69-5.94v3.51a2.07 2.07 0 01-2.05 2.11 2.11 2.11 0 01-2.11-2.11zm23.92 23.7V42c0-6.58-4.53-10.8-9.83-10.8A10.41 10.41 0 00246.65 42v.11c0 6.48 4.91 10.8 10.09 10.8 5.4-.05 9.83-4.05 9.83-10.8zm23.6 14.53c-7.67 0-13.93-5.89-13.93-14.53V42c0-8 5.67-14.52 13.39-14.52 8.26 0 13 6.75 13 14.15a1.94 1.94 0 01-1.95 1.94h-20.23c.59 6 4.86 9.45 9.83 9.45a11.4 11.4 0 008-3.24 1.83 1.83 0 011.19-.49 1.81 1.81 0 011.84 1.78 1.78 1.78 0 01-.65 1.35 14.2 14.2 0 01-10.49 4.22zm8.26-16.15c-.43-5.07-3.35-9.5-8.91-9.5-4.86 0-8.53 4.05-9.07 9.5zm11.07-10.58a2.08 2.08 0 114.16 0v3a10.57 10.57 0 019.56-5.45c6.75 0 10.69 4.53 10.69 11.18v15.51a2.08 2.08 0 11-4.16 0V39.68c0-5.18-2.81-8.42-7.72-8.42s-8.37 3.51-8.37 8.75v14.14a2 2 0 01-2.05 2.11 2.08 2.08 0 01-2.11-2.11zm59.18 24.24a2.08 2.08 0 11-4.15 0v-3.78c-2.27 3.35-5.57 6.21-10.7 6.21-6.69 0-13.33-5.29-13.33-14.47V42c0-9.12 6.64-14.52 13.33-14.52a12.61 12.61 0 0110.7 5.94v-15a2 2 0 012.05-2.11 2.07 2.07 0 012.1 2.11zM344.76 42v.11c0 6.58 4.59 10.8 9.83 10.8a10.43 10.43 0 0010.1-10.8V42a10.38 10.38 0 00-10.1-10.75c-5.4-.05-9.83 3.95-9.83 10.75z" data-name="original weight"/></g></svg>